<?xml version="1.0" encoding="utf-8"?>
<!-- Generator: Adobe Illustrator 25.4.1, SVG Export Plug-In . SVG Version: 6.00 Build 0)  -->
<svg version="1.1" id="Layer_1" xmlns="http://www.w3.org/2000/svg" xmlns:xlink="http://www.w3.org/1999/xlink" x="0px" y="0px"
	 viewBox="0 0 595.28 841.89" style="enable-background:new 0 0 595.28 841.89;" xml:space="preserve">
<style type="text/css">
	.Arched_x0020_Green{fill:url(#SVGID_1_);stroke:#FFFFFF;stroke-width:0.25;stroke-miterlimit:1;}
	.st0{fill:#243C6C;stroke:#243C6C;stroke-width:1.031;}
	.st1{fill:#243C6C;}
	.st2{fill:#E09235;}
</style>
<linearGradient id="SVGID_1_" gradientUnits="userSpaceOnUse" x1="0" y1="841.8896" x2="0.7071" y2="841.1825">
	<stop  offset="0" style="stop-color:#20AC4B"/>
	<stop  offset="0.9831" style="stop-color:#19361A"/>
</linearGradient>
<line class="st0" x1="306.57" y1="363.95" x2="306.57" y2="310.98"/>
<g>
	<path class="st1" d="M142.82,342.82l-5.53-15.4l-5.53,15.4H142.82z M143.12,343.48h-11.66l-1.86,5.35
		c-0.48,1.34-0.72,2.5-0.72,3.47c0,1.5,0.57,2.57,1.69,3.22c1.13,0.65,2.72,0.97,4.78,0.97v0.61h-15.36v-0.61
		c2.78,0,4.94-1.05,6.47-3.15c0.85-1.17,1.94-3.59,3.27-7.27l10.22-28.47h1.21l13.07,35.5c0.61,1.66,1.21,2.64,1.81,2.94
		c0.61,0.3,2.42,0.45,5.44,0.45v0.61h-22.32v-0.61c3.03,0,5.1-0.11,6.23-0.33c1.13-0.22,1.69-0.68,1.69-1.37l-0.12-0.61
		L143.12,343.48z"/>
	<path class="st1" d="M172.01,336.16h5.6c2.93,0,5.1-0.55,6.5-1.64c1.68-1.3,2.53-3.49,2.53-6.58c0-3.41-0.69-5.82-2.08-7.22
		c-1.39-1.4-3.69-2.1-6.9-2.1h-2.89c-0.85,0-1.47,0.06-1.87,0.18c-0.4,0.12-0.65,0.38-0.76,0.76c-0.1,0.39-0.15,1.17-0.15,2.35
		V336.16z M196.51,348.38v2c0,2.38-0.22,4.03-0.67,4.96c-0.73,1.53-2.17,2.3-4.32,2.3c-2.8,0-4.64-1.05-5.53-3.15
		c-0.73-1.69-1.09-4.92-1.09-9.68v-1.27c0-0.4,0.02-0.83,0.06-1.27c0-2.14-0.5-3.58-1.51-4.32c-1-0.74-2.45-1.12-4.33-1.12h-7.11
		v16.26c0,1.21,0.07,1.98,0.21,2.3c0.14,0.32,0.45,0.58,0.91,0.76c0.46,0.18,1.41,0.29,2.84,0.33c1.43,0.04,2.93,0.06,4.51,0.06
		v0.54h-24.62v-0.61c4.23,0,6.78-0.16,7.62-0.49c0.4-0.16,0.69-0.39,0.85-0.7c0.16-0.3,0.24-1.04,0.24-2.21V321.9
		c0-1.13-0.08-1.84-0.24-2.12c-0.08-0.16-0.34-0.32-0.79-0.48c-1.17-0.44-3.73-0.67-7.68-0.67v-0.54h24.74
		c4.36,0,7.82,1.17,10.4,3.51c2.06,1.86,3.09,3.77,3.09,5.76c0,2.34-0.81,4.26-2.43,5.75c-1.95,1.82-5.02,2.97-9.23,3.45
		c4.3,0.85,7.14,3.24,8.52,7.19c0.69,1.97,1.04,4.96,1.04,8.94c0,1.17,0.1,2.01,0.3,2.54c0.21,0.52,0.69,0.78,1.47,0.78
		c0.86,0,1.45-0.68,1.77-2.03c0.33-1.35,0.49-3.22,0.49-5.6H196.51z"/>
	<path class="st1" d="M234.98,318.08v17.24h-0.85c-0.93-6.6-2.4-11.13-4.41-13.6c-1.65-2.07-4.1-3.1-7.32-3.1
		c-0.81,0-1.25,0.04-1.33,0.12c-0.16,0.12-0.24,0.65-0.24,1.58v32.77c0,1.17,0.08,1.92,0.24,2.24c0.08,0.16,0.36,0.34,0.85,0.52
		c0.48,0.18,1.41,0.33,2.78,0.45c1.37,0.12,3.23,0.18,5.56,0.18v0.61h-26.31v-0.61c2.3,0,4.13-0.06,5.5-0.18
		c1.37-0.12,2.3-0.27,2.78-0.45c0.48-0.18,0.79-0.41,0.94-0.67c0.14-0.26,0.21-0.96,0.21-2.09v-32.71c0-1.05-0.12-1.62-0.36-1.7
		c-0.12-0.04-0.54-0.06-1.27-0.06c-3.15,0-5.55,1.01-7.2,3.04c-2.02,2.51-3.53,7.02-4.54,13.54h-0.85v-17.12H234.98z"/>
	<path class="st1" d="M252.94,321.9v31.19c0,1.17,0.08,1.92,0.24,2.24c0.08,0.16,0.32,0.32,0.73,0.48c1.17,0.45,3.57,0.67,7.2,0.67
		v0.61h-23.83v-0.61c1.73,0,3.24-0.06,4.51-0.18c1.27-0.12,2.14-0.27,2.6-0.45c0.46-0.18,0.77-0.41,0.91-0.67
		c0.14-0.26,0.21-0.96,0.21-2.09V321.9c0-1.13-0.08-1.84-0.24-2.12c-0.08-0.16-0.34-0.32-0.79-0.49c-1.17-0.44-3.57-0.67-7.2-0.67
		v-0.54h23.9v0.54c-1.73,0-3.24,0.06-4.51,0.18c-1.27,0.12-2.17,0.28-2.69,0.48l-0.6,0.24C253.08,319.78,252.94,320.56,252.94,321.9
		"/>
	<path class="st1" d="M292.92,340.88c0,5.85-1.12,10.1-3.36,12.76c-2.24,2.66-5.47,3.99-9.71,3.99c-4.8,0-8.85-1.45-12.16-4.35
		c-3.95-3.47-5.93-8.45-5.93-14.94c0-6.33,2-11.51,6-15.55c3.43-3.47,7.11-5.2,11.03-5.2c1.9,0,3.56,0.34,4.97,1.03
		c1.82,0.89,3.48,2.34,4.97,4.36l2.97-5.69h0.3v17.54l-0.49-0.3c0-5.18-1.43-9.34-4.3-12.47c-2.39-2.61-4.9-3.92-7.52-3.92
		c-3.52,0-6.05,1.62-7.58,4.86c-1.54,3.24-2.3,8.12-2.3,14.65c0,6.4,0.83,11.24,2.49,14.52c1.66,3.28,4.19,4.92,7.58,4.92
		c3.84,0,6.79-1.13,8.86-3.39c2.46-2.66,3.7-6.94,3.7-12.82H292.92z"/>
</g>
<g>
	<g>
		<path class="st1" d="M321.03,358.1c0.12,0.06,0.28,0.18,0.49,0.37c0.21,0.19,0.37,0.37,0.5,0.55v0.07
			c-0.07,0.06-0.15,0.13-0.24,0.22c-0.09,0.09-0.18,0.18-0.27,0.27c-0.09,0.09-0.18,0.19-0.26,0.27c-0.08,0.09-0.15,0.16-0.19,0.2
			h-0.07c-0.11-0.14-0.25-0.3-0.42-0.48c-0.18-0.18-0.36-0.31-0.55-0.41v-0.07c0-0.01,0.05-0.07,0.14-0.18
			c0.09-0.11,0.2-0.23,0.32-0.34c0.12-0.12,0.23-0.23,0.33-0.33c0.1-0.1,0.16-0.15,0.17-0.15H321.03z M318.86,358.1
			c0.12,0.06,0.28,0.18,0.49,0.37c0.21,0.19,0.37,0.37,0.5,0.55v0.07c-0.07,0.06-0.15,0.13-0.24,0.22
			c-0.09,0.09-0.18,0.18-0.27,0.27c-0.09,0.09-0.18,0.19-0.26,0.27c-0.08,0.09-0.15,0.16-0.19,0.2h-0.07
			c-0.11-0.14-0.25-0.3-0.43-0.48c-0.18-0.18-0.36-0.31-0.55-0.41v-0.07c0-0.01,0.05-0.07,0.14-0.18c0.09-0.11,0.2-0.23,0.32-0.34
			c0.12-0.12,0.23-0.23,0.33-0.33c0.1-0.1,0.16-0.15,0.17-0.15H318.86z M323.29,350.27h3.62c0.18,0,0.3,0.06,0.36,0.17
			c0.07,0.11,0.1,0.3,0.1,0.55v0.09c0,0.28-0.07,0.46-0.22,0.56c-0.15,0.09-0.35,0.14-0.59,0.14h-0.71c0.11,0.07,0.2,0.17,0.28,0.29
			c0.08,0.12,0.12,0.28,0.12,0.47c0,0.19-0.07,0.43-0.2,0.72c-0.14,0.29-0.34,0.61-0.61,0.94c-0.27,0.33-0.6,0.66-1,1
			c-0.39,0.33-0.85,0.64-1.35,0.9c-0.51,0.27-1.08,0.48-1.7,0.65c-0.63,0.16-1.31,0.25-2.04,0.25c-0.7,0-1.28-0.07-1.77-0.2
			c-0.48-0.13-0.88-0.31-1.2-0.52c-0.32-0.21-0.57-0.46-0.74-0.74c-0.18-0.28-0.3-0.56-0.39-0.85c-0.08-0.28-0.13-0.56-0.15-0.84
			c-0.02-0.28-0.03-0.52-0.03-0.73c0-0.32,0.03-0.64,0.1-0.97c0.06-0.33,0.14-0.63,0.22-0.91c0.08-0.28,0.16-0.51,0.25-0.7
			c0.08-0.19,0.15-0.3,0.2-0.35c0.02-0.02,0.05-0.04,0.07-0.04c0.06,0,0.12,0.03,0.18,0.09c-0.09,0.24-0.17,0.54-0.24,0.91
			c-0.06,0.37-0.1,0.75-0.1,1.14c0,0.35,0.07,0.71,0.2,1.06c0.14,0.35,0.36,0.67,0.67,0.95c0.31,0.28,0.72,0.51,1.22,0.69
			c0.5,0.18,1.12,0.27,1.85,0.27c0.8,0,1.54-0.07,2.22-0.22c0.68-0.15,1.26-0.33,1.75-0.54c0.49-0.21,0.87-0.44,1.14-0.67
			c0.27-0.24,0.41-0.44,0.41-0.62c0-0.2-0.18-0.41-0.54-0.64c-0.36-0.22-1-0.49-1.93-0.79L323.29,350.27z"/>
		<path class="st1" d="M328.08,347.34c0.18-0.19,0.33-0.41,0.47-0.65c0.13-0.25,0.27-0.47,0.4-0.67c0.08-0.14,0.36-0.21,0.83-0.21
			c0.35,0,0.77,0.08,1.24,0.23c0.47,0.15,0.98,0.32,1.51,0.5c0.54,0.18,1.08,0.35,1.64,0.5c0.56,0.15,1.1,0.23,1.63,0.23
			c0.17,0,0.37-0.01,0.6-0.02c0.24-0.01,0.44-0.03,0.62-0.05l0.03,0.05c-0.05,0.08-0.1,0.18-0.17,0.29
			c-0.07,0.11-0.13,0.22-0.19,0.34c-0.06,0.11-0.11,0.22-0.16,0.33c-0.05,0.11-0.08,0.19-0.09,0.26c-0.39,0-0.74,0.02-1.05,0.05
			c-0.31,0.03-0.6,0.09-0.87,0.18c-0.27,0.08-0.54,0.19-0.81,0.34c-0.27,0.14-0.56,0.32-0.87,0.53c-0.45,0.32-0.88,0.61-1.29,0.88
			c-0.41,0.27-0.85,0.5-1.32,0.7c-0.47,0.19-1,0.35-1.59,0.46c-0.59,0.11-1.28,0.17-2.08,0.17c-0.12,0-0.22-0.05-0.32-0.16
			c-0.09-0.11-0.14-0.28-0.14-0.51V351c0-0.25,0.07-0.43,0.22-0.54c0.15-0.11,0.34-0.17,0.57-0.17c0.97-0.01,1.75-0.09,2.36-0.24
			c0.61-0.15,1.13-0.33,1.56-0.54c0.43-0.21,0.81-0.44,1.15-0.68c0.33-0.24,0.71-0.47,1.14-0.68c-0.27-0.11-0.56-0.21-0.88-0.33
			c-0.31-0.11-0.62-0.21-0.93-0.3c-0.3-0.09-0.59-0.16-0.86-0.22c-0.27-0.06-0.5-0.09-0.69-0.09c-0.45,0-0.79,0.02-1.02,0.05
			c-0.23,0.04-0.42,0.09-0.57,0.16L328.08,347.34z"/>
		<path class="st1" d="M340.06,340.57c0.02,0.47,0.04,1.01,0.05,1.62c0.01,0.61,0.02,1.24,0.02,1.92v1.18c0,0.4-0.01,0.8-0.04,1.18
			c-0.01,0.14-0.02,0.28-0.02,0.41v0.39c0,0.48,0.03,0.91,0.09,1.29c0.06,0.38,0.16,0.7,0.32,0.95c0.15,0.26,0.36,0.45,0.64,0.58
			c0.27,0.13,0.62,0.19,1.04,0.19c0.18,0,0.3,0.06,0.36,0.17c0.07,0.11,0.1,0.29,0.1,0.54v0.09c0,0.27-0.07,0.45-0.22,0.55
			c-0.15,0.09-0.34,0.14-0.59,0.14c-0.59,0-1.06-0.08-1.41-0.25c-0.35-0.16-0.62-0.4-0.8-0.69c-0.18-0.29-0.3-0.63-0.35-1.02
			c-0.05-0.38-0.08-0.8-0.08-1.25v-2.81c0-0.54-0.01-1.11-0.03-1.71c-0.02-0.59-0.05-1.16-0.09-1.69c-0.04-0.53-0.09-1-0.15-1.4
			c-0.06-0.4-0.13-0.68-0.21-0.83c0.09-0.08,0.19-0.19,0.3-0.31c0.11-0.12,0.21-0.24,0.31-0.36c0.1-0.12,0.19-0.23,0.26-0.33
			c0.08-0.1,0.13-0.17,0.17-0.2c0.03-0.03,0.08-0.05,0.12-0.05c0.05,0,0.08,0.02,0.11,0.05c0.03,0.04,0.04,0.07,0.04,0.11
			L340.06,340.57z"/>
		<path class="st1" d="M345.61,353.7c0.12,0.06,0.28,0.18,0.49,0.37c0.21,0.19,0.37,0.37,0.5,0.55v0.07
			c-0.07,0.06-0.15,0.13-0.24,0.22c-0.09,0.09-0.18,0.18-0.27,0.27c-0.1,0.09-0.18,0.19-0.26,0.27c-0.08,0.09-0.15,0.16-0.2,0.2
			h-0.07c-0.11-0.14-0.25-0.3-0.42-0.48c-0.18-0.18-0.36-0.31-0.55-0.41v-0.07c0-0.01,0.05-0.07,0.14-0.18
			c0.09-0.11,0.2-0.23,0.32-0.34c0.12-0.12,0.23-0.23,0.33-0.33c0.1-0.1,0.16-0.15,0.17-0.15H345.61z M343.43,353.7
			c0.12,0.06,0.28,0.18,0.49,0.37c0.21,0.19,0.37,0.37,0.5,0.55v0.07c-0.07,0.06-0.15,0.13-0.24,0.22
			c-0.09,0.09-0.18,0.18-0.27,0.27c-0.09,0.09-0.18,0.19-0.26,0.27c-0.08,0.09-0.15,0.16-0.19,0.2h-0.07
			c-0.11-0.14-0.25-0.3-0.42-0.48c-0.18-0.18-0.36-0.31-0.55-0.41v-0.07c0-0.01,0.05-0.07,0.14-0.18c0.09-0.11,0.2-0.23,0.32-0.34
			c0.12-0.12,0.23-0.23,0.33-0.33c0.1-0.1,0.16-0.15,0.17-0.15H343.43z M347.87,351.08c0,0.27-0.07,0.45-0.22,0.55
			c-0.15,0.09-0.35,0.14-0.59,0.14c-0.27,0-0.53-0.02-0.77-0.05c-0.24-0.04-0.46-0.1-0.65-0.2c-0.19-0.1-0.36-0.24-0.5-0.41
			c-0.14-0.17-0.24-0.4-0.3-0.68c-0.11,0.14-0.23,0.29-0.37,0.44c-0.14,0.15-0.33,0.3-0.56,0.43c-0.23,0.14-0.51,0.25-0.85,0.33
			c-0.33,0.09-0.75,0.13-1.25,0.13c-0.12,0-0.22-0.05-0.32-0.16c-0.09-0.11-0.14-0.28-0.14-0.51V351c0-0.25,0.08-0.43,0.23-0.54
			c0.15-0.11,0.35-0.17,0.58-0.17c0.45,0,0.82-0.04,1.13-0.12c0.31-0.08,0.56-0.19,0.75-0.32c0.19-0.13,0.34-0.26,0.45-0.41
			c0.11-0.14,0.18-0.28,0.23-0.41c0.12-0.33,0.24-0.59,0.37-0.8c0.13-0.2,0.24-0.33,0.32-0.39c0.01-0.01,0.03-0.02,0.05-0.02
			c0.02,0,0.05,0.01,0.07,0.03c0.02,0.02,0.04,0.03,0.05,0.04c-0.06,0.09-0.11,0.25-0.16,0.46c-0.05,0.21-0.07,0.41-0.07,0.6
			c0,0.5,0.16,0.84,0.47,1.03c0.31,0.19,0.84,0.29,1.58,0.29c0.18,0,0.3,0.06,0.36,0.17c0.06,0.11,0.1,0.29,0.1,0.54V351.08z"/>
		<path class="st1" d="M356.05,351.77c-0.14,0-0.29-0.02-0.45-0.05c-0.16-0.04-0.32-0.1-0.47-0.2c-0.15-0.1-0.29-0.24-0.41-0.41
			c-0.12-0.17-0.21-0.4-0.27-0.68c-0.39,0.41-0.78,0.74-1.18,0.98c-0.4,0.24-0.86,0.36-1.4,0.36c-0.38,0-0.74-0.09-1.08-0.28
			c-0.34-0.19-0.58-0.54-0.71-1.06c-0.11,0.14-0.23,0.29-0.37,0.44c-0.14,0.15-0.33,0.3-0.56,0.43c-0.23,0.14-0.51,0.25-0.85,0.34
			c-0.33,0.09-0.75,0.13-1.25,0.13c-0.12,0-0.22-0.05-0.32-0.16c-0.09-0.11-0.14-0.28-0.14-0.51V351c0-0.25,0.08-0.43,0.23-0.54
			c0.15-0.11,0.35-0.17,0.58-0.17c0.45,0,0.83-0.04,1.13-0.12c0.31-0.08,0.56-0.19,0.75-0.32c0.19-0.13,0.34-0.26,0.45-0.41
			c0.11-0.14,0.18-0.28,0.23-0.41c0.12-0.33,0.24-0.6,0.37-0.79c0.13-0.2,0.24-0.33,0.32-0.39c0.01-0.01,0.03-0.02,0.05-0.02
			c0.02,0,0.05,0.01,0.07,0.03c0.02,0.02,0.04,0.03,0.05,0.04c-0.06,0.09-0.11,0.25-0.16,0.46c-0.05,0.21-0.07,0.41-0.07,0.6
			c0,0.5,0.15,0.84,0.44,1.03c0.29,0.19,0.68,0.29,1.15,0.29c0.33,0,0.62-0.04,0.87-0.12c0.25-0.08,0.46-0.19,0.63-0.32
			c0.17-0.13,0.31-0.26,0.42-0.41c0.11-0.14,0.18-0.28,0.23-0.41c0.12-0.33,0.24-0.6,0.37-0.79c0.13-0.2,0.24-0.33,0.32-0.39
			c0.01-0.01,0.03-0.02,0.05-0.02c0.02,0,0.05,0.01,0.07,0.03c0.02,0.02,0.04,0.03,0.05,0.04c-0.06,0.09-0.11,0.25-0.16,0.46
			c-0.05,0.21-0.07,0.41-0.07,0.6c0,0.39,0.1,0.71,0.31,0.95c0.21,0.25,0.56,0.37,1.07,0.37c0.3,0,0.57-0.08,0.79-0.25
			c0.22-0.17,0.4-0.36,0.51-0.56c-0.03-0.14-0.06-0.28-0.07-0.42c-0.01-0.14-0.02-0.27-0.02-0.4c0-0.24,0.01-0.45,0.04-0.64
			c0.03-0.19,0.07-0.33,0.12-0.42c0.01-0.04,0.04-0.05,0.09-0.05c0.05,0,0.07,0.01,0.07,0.04c0.04,0.32,0.09,0.64,0.16,0.96
			c0.07,0.32,0.2,0.62,0.4,0.88c0.19,0.26,0.46,0.47,0.81,0.63c0.35,0.16,0.81,0.24,1.4,0.24c0.18,0,0.3,0.06,0.36,0.17
			c0.07,0.11,0.1,0.29,0.1,0.54v0.09c0,0.27-0.07,0.45-0.22,0.55c-0.15,0.09-0.35,0.14-0.59,0.14c-1.1,0-1.84-0.45-2.23-1.34
			c-0.1,0.13-0.2,0.27-0.33,0.43c-0.12,0.16-0.27,0.3-0.43,0.44c-0.16,0.14-0.34,0.25-0.55,0.34
			C356.58,351.73,356.33,351.77,356.05,351.77"/>
		<path class="st1" d="M362.53,340.66c-0.12-0.12-0.21-0.25-0.28-0.39c-0.07-0.14-0.11-0.31-0.11-0.49c0-0.22,0.06-0.51,0.18-0.86
			c0.12-0.35,0.28-0.63,0.48-0.86c0.04,0.31,0.1,0.56,0.19,0.75c0.1,0.19,0.21,0.36,0.35,0.5c0.14,0.14,0.31,0.26,0.5,0.35
			c0.19,0.1,0.41,0.19,0.65,0.28l-0.64,1.45c0.04,0.94,0.06,1.74,0.09,2.39c0.02,0.65,0.04,1.2,0.06,1.63
			c0.02,0.44,0.03,0.78,0.03,1.02c0.01,0.25,0.01,0.43,0.02,0.56c0.01,0.12,0.01,0.21,0.01,0.25v0.08c0,0.52-0.09,1.04-0.27,1.57
			c-0.18,0.53-0.44,1.01-0.77,1.43c-0.33,0.42-0.73,0.77-1.19,1.03c-0.46,0.27-0.97,0.4-1.53,0.4c-0.12,0-0.22-0.05-0.32-0.16
			c-0.09-0.11-0.14-0.28-0.14-0.51V351c0-0.25,0.08-0.43,0.23-0.54c0.15-0.11,0.35-0.17,0.58-0.17c0.48,0,0.88-0.03,1.19-0.09
			c0.31-0.06,0.56-0.16,0.73-0.31c0.18-0.15,0.3-0.35,0.36-0.61c0.06-0.26,0.1-0.59,0.1-0.99c0-0.34-0.01-0.76-0.04-1.25
			c-0.02-0.49-0.05-1-0.09-1.54c-0.03-0.54-0.07-1.08-0.11-1.63c-0.03-0.54-0.07-1.04-0.11-1.49c-0.04-0.45-0.08-0.84-0.11-1.15
			C362.57,340.92,362.55,340.73,362.53,340.66"/>
		<path class="st1" d="M366.69,340.61c-0.12-0.12-0.23-0.26-0.34-0.42c-0.11-0.16-0.16-0.34-0.16-0.53c0-0.22,0.06-0.51,0.18-0.86
			c0.12-0.35,0.28-0.63,0.48-0.86c0.03,0.31,0.1,0.56,0.19,0.75c0.1,0.19,0.21,0.36,0.35,0.5c0.14,0.14,0.31,0.26,0.5,0.35
			c0.19,0.1,0.41,0.19,0.65,0.28l-0.64,1.34c0.04,0.54,0.07,1.13,0.11,1.78c0.03,0.64,0.07,1.3,0.1,1.97
			c0.03,0.67,0.05,1.34,0.07,2.01c0.02,0.67,0.03,1.28,0.03,1.85c0,0.33-0.01,0.62-0.04,0.87c-0.03,0.25-0.08,0.5-0.16,0.74
			c-0.08,0.24-0.18,0.49-0.33,0.75c-0.14,0.26-0.32,0.55-0.53,0.87h-0.07l-0.09-0.07c0.06-0.31,0.1-0.79,0.11-1.45
			c0.02-0.66,0.03-1.45,0.03-2.37c0-0.57-0.02-1.19-0.04-1.88c-0.03-0.69-0.07-1.37-0.11-2.06c-0.04-0.68-0.09-1.34-0.14-1.96
			C366.78,341.59,366.73,341.05,366.69,340.61"/>
		<path class="st1" d="M378.49,350.54c0-0.61-0.37-1.38-1.11-2.3c-0.1-0.12-0.16-0.22-0.16-0.3c0-0.05,0.02-0.1,0.05-0.16l0.58-1.43
			h0.07c0.09,0.12,0.21,0.3,0.35,0.55c0.14,0.25,0.28,0.52,0.41,0.82c0.13,0.3,0.24,0.61,0.33,0.94c0.1,0.32,0.14,0.62,0.14,0.88
			c0,1.15-0.13,2.11-0.38,2.87c-0.25,0.76-0.56,1.37-0.91,1.82c-0.35,0.45-0.71,0.78-1.08,0.96c-0.36,0.19-0.66,0.28-0.88,0.28
			c-0.3,0-0.61-0.03-0.95-0.09c-0.34-0.06-0.65-0.13-0.95-0.21c-0.16-0.05-0.34-0.1-0.51-0.15c-0.18-0.05-0.35-0.11-0.51-0.17
			l0.02-0.11c0.94-0.02,1.76-0.17,2.45-0.42c0.69-0.26,1.26-0.59,1.71-0.99c0.45-0.4,0.78-0.84,1-1.33
			C378.38,351.51,378.49,351.02,378.49,350.54"/>
		<path class="st1" d="M382.83,340.57c0.02,0.47,0.04,1.01,0.05,1.62c0.01,0.61,0.02,1.24,0.02,1.92v1.18c0,0.4-0.01,0.8-0.04,1.18
			c-0.01,0.14-0.02,0.28-0.02,0.41v0.39c0,0.48,0.03,0.91,0.09,1.29c0.06,0.38,0.16,0.7,0.32,0.95c0.15,0.26,0.37,0.45,0.64,0.58
			c0.27,0.13,0.62,0.19,1.04,0.19c0.18,0,0.3,0.06,0.36,0.17c0.07,0.11,0.1,0.29,0.1,0.54v0.09c0,0.27-0.07,0.45-0.22,0.55
			c-0.15,0.09-0.35,0.14-0.59,0.14c-0.59,0-1.06-0.08-1.41-0.25c-0.35-0.16-0.62-0.4-0.8-0.69c-0.18-0.29-0.3-0.63-0.35-1.02
			c-0.05-0.38-0.08-0.8-0.08-1.25v-2.81c0-0.54-0.01-1.11-0.03-1.71c-0.02-0.59-0.05-1.16-0.09-1.69c-0.04-0.53-0.09-1-0.15-1.4
			c-0.06-0.4-0.13-0.68-0.21-0.83c0.09-0.08,0.19-0.19,0.3-0.31c0.11-0.12,0.21-0.24,0.31-0.36c0.1-0.12,0.19-0.23,0.26-0.33
			c0.08-0.1,0.13-0.17,0.17-0.2c0.03-0.03,0.08-0.05,0.12-0.05c0.05,0,0.08,0.02,0.11,0.05c0.03,0.04,0.04,0.07,0.04,0.11
			L382.83,340.57z"/>
		<path class="st1" d="M388.72,347.6c-0.17,0-0.32,0.05-0.48,0.16c-0.15,0.11-0.29,0.24-0.42,0.4c-0.13,0.16-0.24,0.34-0.35,0.53
			c-0.1,0.19-0.19,0.38-0.26,0.56c0.34,0.4,0.74,0.71,1.2,0.94c0.46,0.22,0.94,0.33,1.43,0.33c0.57,0,0.85-0.25,0.85-0.74
			c0-0.09-0.06-0.26-0.17-0.5c-0.11-0.24-0.26-0.49-0.44-0.73c-0.18-0.25-0.39-0.47-0.63-0.65
			C389.22,347.7,388.98,347.6,388.72,347.6 M384.94,350.29c0.29,0,0.55-0.06,0.76-0.18c0.21-0.12,0.39-0.28,0.53-0.47
			c0.14-0.19,0.26-0.39,0.35-0.62c0.09-0.22,0.18-0.44,0.25-0.65c0.25-0.68,0.55-1.21,0.92-1.57c0.37-0.36,0.74-0.55,1.11-0.55
			c0.27,0,0.52,0.06,0.75,0.18c0.23,0.12,0.45,0.27,0.64,0.47c0.2,0.19,0.38,0.41,0.55,0.66c0.16,0.25,0.32,0.5,0.46,0.76
			c0.2,0.4,0.38,0.73,0.56,0.98c0.17,0.25,0.34,0.45,0.5,0.6c0.17,0.15,0.34,0.25,0.52,0.31c0.18,0.06,0.38,0.09,0.59,0.09
			c0.18,0,0.3,0.06,0.36,0.17c0.06,0.11,0.1,0.29,0.1,0.54v0.09c0,0.27-0.07,0.45-0.22,0.55c-0.15,0.09-0.35,0.14-0.59,0.14
			c-0.31,0-0.64-0.11-0.99-0.32c-0.35-0.21-0.69-0.62-1.02-1.22c-0.05,0.18-0.12,0.36-0.22,0.56c-0.1,0.19-0.21,0.38-0.34,0.55
			c-0.13,0.17-0.27,0.31-0.42,0.42c-0.15,0.11-0.31,0.16-0.46,0.16c-0.53,0-1.04-0.12-1.52-0.36c-0.48-0.24-0.97-0.66-1.47-1.26
			c-0.19,0.44-0.46,0.79-0.82,1.07c-0.36,0.28-0.77,0.41-1.23,0.41c-0.12,0-0.22-0.05-0.32-0.16c-0.09-0.11-0.14-0.28-0.14-0.51V351
			c0-0.25,0.08-0.43,0.23-0.54C384.51,350.35,384.7,350.29,384.94,350.29"/>
		<path class="st1" d="M397.36,343.17c0.12,0.06,0.28,0.18,0.49,0.37c0.21,0.19,0.38,0.37,0.5,0.55v0.07
			c-0.07,0.06-0.15,0.13-0.24,0.22c-0.09,0.09-0.18,0.18-0.27,0.27c-0.09,0.09-0.18,0.19-0.26,0.27c-0.08,0.09-0.15,0.16-0.19,0.2
			h-0.07c-0.11-0.14-0.25-0.3-0.42-0.48c-0.18-0.18-0.36-0.31-0.55-0.41v-0.07c0-0.01,0.05-0.07,0.14-0.19
			c0.09-0.11,0.2-0.23,0.32-0.34c0.12-0.12,0.23-0.23,0.33-0.33c0.1-0.1,0.16-0.15,0.17-0.15H397.36z M396.17,340.92
			c0.12,0.06,0.28,0.18,0.49,0.37c0.21,0.19,0.37,0.37,0.5,0.55v0.07c-0.07,0.06-0.15,0.13-0.24,0.22
			c-0.09,0.09-0.18,0.18-0.27,0.27c-0.1,0.1-0.18,0.19-0.27,0.27c-0.08,0.09-0.15,0.16-0.19,0.2h-0.07
			c-0.11-0.14-0.25-0.3-0.42-0.48c-0.18-0.18-0.36-0.31-0.55-0.41v-0.07c0-0.01,0.05-0.07,0.14-0.19c0.09-0.11,0.2-0.23,0.32-0.34
			c0.12-0.12,0.23-0.23,0.33-0.33c0.1-0.1,0.16-0.15,0.17-0.15H396.17z M395.18,343.17c0.12,0.06,0.28,0.18,0.49,0.37
			c0.21,0.19,0.37,0.37,0.5,0.55v0.07c-0.07,0.06-0.15,0.13-0.24,0.22c-0.09,0.09-0.18,0.18-0.27,0.27
			c-0.09,0.09-0.18,0.19-0.27,0.27c-0.08,0.09-0.15,0.16-0.19,0.2h-0.07c-0.11-0.14-0.25-0.3-0.43-0.48
			c-0.18-0.18-0.36-0.31-0.55-0.41v-0.07c0-0.01,0.05-0.07,0.14-0.19c0.09-0.11,0.2-0.23,0.32-0.34c0.12-0.12,0.23-0.23,0.33-0.33
			c0.1-0.1,0.16-0.15,0.17-0.15H395.18z M399.14,351.08c0,0.27-0.07,0.45-0.22,0.55c-0.15,0.09-0.34,0.14-0.59,0.14
			c-0.27,0-0.53-0.02-0.77-0.05c-0.24-0.04-0.46-0.1-0.65-0.2c-0.19-0.1-0.36-0.24-0.5-0.41c-0.14-0.17-0.24-0.4-0.3-0.68
			c-0.11,0.14-0.23,0.29-0.37,0.44c-0.14,0.15-0.33,0.3-0.56,0.43c-0.23,0.14-0.51,0.25-0.85,0.33c-0.34,0.09-0.75,0.13-1.25,0.13
			c-0.12,0-0.22-0.05-0.32-0.16c-0.09-0.11-0.14-0.28-0.14-0.51V351c0-0.25,0.08-0.43,0.23-0.54c0.15-0.11,0.35-0.17,0.58-0.17
			c0.45,0,0.82-0.04,1.13-0.12c0.31-0.08,0.56-0.19,0.75-0.32c0.19-0.13,0.35-0.26,0.45-0.41c0.11-0.14,0.18-0.28,0.23-0.41
			c0.12-0.33,0.24-0.59,0.37-0.8c0.13-0.2,0.23-0.33,0.32-0.39c0.01-0.01,0.03-0.02,0.05-0.02s0.05,0.01,0.07,0.03
			c0.02,0.02,0.04,0.03,0.05,0.04c-0.06,0.09-0.11,0.25-0.16,0.46c-0.05,0.21-0.07,0.41-0.07,0.6c0,0.5,0.16,0.84,0.47,1.03
			c0.31,0.19,0.84,0.29,1.58,0.29c0.18,0,0.3,0.06,0.36,0.17c0.07,0.11,0.1,0.29,0.1,0.54V351.08z"/>
		<path class="st1" d="M402.78,343.17c0.12,0.06,0.28,0.18,0.49,0.37c0.21,0.19,0.37,0.37,0.5,0.55v0.07
			c-0.07,0.06-0.15,0.13-0.24,0.22c-0.09,0.09-0.18,0.18-0.27,0.27c-0.09,0.09-0.18,0.19-0.26,0.27c-0.08,0.09-0.15,0.16-0.19,0.2
			h-0.07c-0.11-0.14-0.25-0.3-0.42-0.48c-0.18-0.18-0.36-0.31-0.55-0.41v-0.07c0-0.01,0.05-0.07,0.14-0.19
			c0.09-0.11,0.2-0.23,0.32-0.34c0.12-0.12,0.23-0.23,0.33-0.33c0.1-0.1,0.16-0.15,0.17-0.15H402.78z M400.61,343.17
			c0.12,0.06,0.28,0.18,0.49,0.37c0.21,0.19,0.38,0.37,0.5,0.55v0.07c-0.07,0.06-0.15,0.13-0.24,0.22
			c-0.09,0.09-0.18,0.18-0.27,0.27c-0.09,0.09-0.18,0.19-0.26,0.27c-0.08,0.09-0.15,0.16-0.19,0.2h-0.07
			c-0.11-0.14-0.25-0.3-0.42-0.48c-0.18-0.18-0.36-0.31-0.55-0.41v-0.07c0-0.01,0.05-0.07,0.14-0.19c0.09-0.11,0.2-0.23,0.32-0.34
			c0.12-0.12,0.23-0.23,0.33-0.33c0.1-0.1,0.16-0.15,0.17-0.15H400.61z M404.39,351.08c0,0.27-0.07,0.45-0.22,0.55
			c-0.15,0.09-0.34,0.14-0.59,0.14c-0.27,0-0.53-0.02-0.77-0.05c-0.24-0.04-0.46-0.1-0.65-0.2c-0.19-0.1-0.36-0.24-0.5-0.41
			c-0.14-0.17-0.24-0.4-0.3-0.68c-0.11,0.14-0.23,0.29-0.37,0.44c-0.14,0.15-0.33,0.3-0.56,0.43c-0.23,0.14-0.51,0.25-0.85,0.33
			c-0.34,0.09-0.75,0.13-1.25,0.13c-0.12,0-0.22-0.05-0.32-0.16c-0.09-0.11-0.14-0.28-0.14-0.51V351c0-0.25,0.08-0.43,0.23-0.54
			c0.15-0.11,0.35-0.17,0.58-0.17c0.45,0,0.83-0.04,1.13-0.12c0.31-0.08,0.56-0.19,0.75-0.32c0.19-0.13,0.35-0.26,0.45-0.41
			c0.11-0.14,0.18-0.28,0.23-0.41c0.12-0.33,0.24-0.59,0.37-0.8c0.13-0.2,0.24-0.33,0.32-0.39c0.01-0.01,0.03-0.02,0.05-0.02
			c0.02,0,0.05,0.01,0.07,0.03c0.02,0.02,0.04,0.03,0.05,0.04c-0.06,0.09-0.11,0.25-0.16,0.46c-0.05,0.21-0.07,0.41-0.07,0.6
			c0,0.5,0.16,0.84,0.47,1.03c0.31,0.19,0.84,0.29,1.58,0.29c0.18,0,0.3,0.06,0.36,0.17c0.07,0.11,0.1,0.29,0.1,0.54V351.08z"/>
		<path class="st1" d="M408.15,351.77c-0.38,0-0.74-0.09-1.08-0.28c-0.34-0.19-0.58-0.54-0.71-1.06c-0.11,0.14-0.23,0.29-0.37,0.44
			c-0.14,0.15-0.33,0.3-0.56,0.43c-0.23,0.14-0.51,0.25-0.85,0.34c-0.34,0.09-0.75,0.13-1.25,0.13c-0.12,0-0.22-0.05-0.32-0.16
			c-0.09-0.11-0.14-0.28-0.14-0.51V351c0-0.25,0.08-0.43,0.23-0.54c0.15-0.11,0.35-0.17,0.58-0.17c0.45,0,0.82-0.04,1.13-0.12
			c0.31-0.08,0.56-0.19,0.75-0.32c0.19-0.13,0.34-0.26,0.45-0.41c0.11-0.14,0.18-0.28,0.23-0.41c0.12-0.33,0.24-0.6,0.37-0.79
			c0.13-0.2,0.24-0.33,0.32-0.39c0.01-0.01,0.03-0.02,0.05-0.02c0.02,0,0.05,0.01,0.07,0.03c0.02,0.02,0.04,0.03,0.05,0.04
			c-0.06,0.09-0.11,0.25-0.16,0.46c-0.05,0.21-0.07,0.41-0.07,0.6c0,0.5,0.14,0.84,0.43,1.03c0.29,0.19,0.7,0.29,1.25,0.29
			c0.28,0,0.54-0.04,0.78-0.12c0.23-0.08,0.44-0.19,0.61-0.31c0.17-0.12,0.31-0.26,0.42-0.41c0.11-0.15,0.19-0.29,0.24-0.42
			c0.13-0.33,0.26-0.6,0.38-0.79c0.12-0.2,0.23-0.33,0.31-0.39c0.01-0.01,0.03-0.02,0.05-0.02c0.02,0,0.05,0.01,0.07,0.03
			c0.02,0.02,0.04,0.03,0.05,0.04c-0.06,0.09-0.11,0.25-0.16,0.46c-0.05,0.21-0.07,0.41-0.07,0.6c0,0.39,0.1,0.71,0.31,0.95
			c0.21,0.25,0.56,0.37,1.07,0.37c0.61,0,1.04-0.09,1.29-0.28c0.25-0.19,0.37-0.44,0.37-0.74c0-0.18-0.05-0.42-0.15-0.72
			c-0.1-0.3-0.34-0.69-0.72-1.16c-0.07-0.08-0.11-0.18-0.11-0.3c0-0.11,0.02-0.2,0.07-0.28l0.69-1.32h0.07
			c0.3,0.54,0.51,1.09,0.65,1.63c0.14,0.55,0.21,1.06,0.21,1.53c0,0.26-0.04,0.51-0.11,0.76c-0.07,0.25-0.16,0.48-0.26,0.69
			c-0.11,0.21-0.22,0.4-0.35,0.57c-0.12,0.17-0.24,0.3-0.35,0.39c-0.25,0.24-0.5,0.42-0.77,0.54c-0.26,0.12-0.55,0.18-0.86,0.18
			c-0.14,0-0.29-0.02-0.45-0.05c-0.16-0.04-0.32-0.1-0.47-0.2c-0.15-0.1-0.29-0.24-0.41-0.41c-0.12-0.17-0.22-0.4-0.27-0.68
			c-0.34,0.38-0.72,0.7-1.14,0.95C409.18,351.64,408.7,351.77,408.15,351.77"/>
		<path class="st1" d="M424.69,340.57c0.02,0.47,0.04,1.01,0.05,1.62c0.01,0.61,0.02,1.24,0.02,1.92v1.18c0,0.4-0.01,0.8-0.04,1.18
			c0,0.12,0,0.23-0.01,0.34c-0.01,0.11-0.01,0.22-0.01,0.33c0,0.51,0.03,0.95,0.1,1.34c0.07,0.39,0.18,0.71,0.35,0.98
			c0.16,0.27,0.39,0.47,0.67,0.61c0.28,0.14,0.65,0.21,1.1,0.21c0.18,0,0.3,0.06,0.36,0.17c0.06,0.11,0.1,0.29,0.1,0.54v0.09
			c0,0.27-0.07,0.45-0.22,0.55c-0.15,0.09-0.34,0.14-0.59,0.14c-0.6,0-1.08-0.08-1.44-0.25c-0.36-0.16-0.64-0.4-0.84-0.69
			c-0.2-0.29-0.33-0.63-0.4-1.02c-0.07-0.38-0.1-0.8-0.1-1.25v-0.97c-0.55,1.06-1.09,1.88-1.61,2.46c-0.52,0.58-1.01,1.02-1.47,1.3
			c-0.46,0.28-0.89,0.45-1.28,0.51c-0.4,0.06-0.75,0.09-1.05,0.09c-0.12,0-0.27,0-0.46-0.02c-0.19-0.01-0.38-0.03-0.57-0.04
			c-0.19-0.02-0.37-0.04-0.54-0.06c-0.16-0.02-0.28-0.05-0.35-0.07c-0.12-0.04-0.18-0.08-0.18-0.14c0-0.03,0.02-0.07,0.05-0.11
			c0.86-0.14,1.62-0.31,2.27-0.51c0.65-0.2,1.23-0.43,1.72-0.68c0.49-0.25,0.92-0.53,1.28-0.82c0.36-0.29,0.68-0.61,0.96-0.94
			c-0.13-0.24-0.33-0.55-0.59-0.94c-0.27-0.39-0.6-0.81-1-1.26c-0.4-0.45-0.87-0.92-1.4-1.4c-0.53-0.48-1.13-0.92-1.8-1.33
			l-0.19,0.42l-0.05,0.02c-0.08-0.16-0.16-0.32-0.24-0.46c-0.08-0.14-0.14-0.28-0.2-0.41c-0.12-0.22-0.22-0.43-0.31-0.62
			c-0.09-0.19-0.13-0.31-0.13-0.35c0-0.02,0.02-0.09,0.05-0.2c0.03-0.11,0.08-0.23,0.14-0.35c0.02-0.06,0.05-0.13,0.08-0.2
			c0.03-0.08,0.07-0.15,0.11-0.24h0.11c1.25,1,2.36,2.08,3.35,3.23c0.98,1.15,1.78,2.37,2.4,3.66c0.2-0.27,0.38-0.53,0.53-0.78
			c0.15-0.25,0.28-0.47,0.37-0.67v-0.94c0-0.54-0.01-1.11-0.03-1.7c-0.02-0.59-0.05-1.14-0.09-1.66c-0.04-0.52-0.09-0.98-0.15-1.38
			c-0.06-0.4-0.13-0.68-0.21-0.85v-0.07c0.09-0.07,0.19-0.17,0.3-0.28c0.11-0.12,0.21-0.24,0.31-0.35c0.1-0.12,0.19-0.23,0.26-0.33
			c0.08-0.1,0.13-0.17,0.17-0.2c0.03-0.03,0.08-0.05,0.12-0.05c0.05,0,0.09,0.02,0.11,0.05c0.03,0.04,0.04,0.07,0.04,0.11
			L424.69,340.57z"/>
		<path class="st1" d="M428.79,340.66c-0.12-0.12-0.21-0.25-0.28-0.39c-0.07-0.14-0.11-0.31-0.11-0.49c0-0.22,0.06-0.51,0.18-0.86
			c0.12-0.35,0.28-0.63,0.48-0.86c0.04,0.31,0.1,0.56,0.19,0.75c0.09,0.19,0.21,0.36,0.35,0.5c0.14,0.14,0.31,0.26,0.5,0.35
			c0.19,0.1,0.41,0.19,0.65,0.28l-0.64,1.45c0.04,0.94,0.07,1.74,0.09,2.39c0.02,0.65,0.04,1.2,0.06,1.63
			c0.02,0.44,0.03,0.78,0.03,1.02c0.01,0.25,0.01,0.43,0.02,0.56c0.01,0.12,0.01,0.21,0.01,0.25v0.08c0,0.52-0.09,1.04-0.27,1.57
			c-0.18,0.53-0.44,1.01-0.77,1.43c-0.33,0.42-0.73,0.77-1.19,1.03c-0.47,0.27-0.97,0.4-1.53,0.4c-0.12,0-0.22-0.05-0.32-0.16
			c-0.09-0.11-0.14-0.28-0.14-0.51V351c0-0.25,0.08-0.43,0.23-0.54c0.15-0.11,0.35-0.17,0.58-0.17c0.48,0,0.88-0.03,1.19-0.09
			c0.31-0.06,0.56-0.16,0.73-0.31c0.18-0.15,0.3-0.35,0.36-0.61c0.06-0.26,0.1-0.59,0.1-0.99c0-0.34-0.01-0.76-0.04-1.25
			c-0.02-0.49-0.05-1-0.09-1.54c-0.03-0.54-0.07-1.08-0.11-1.63c-0.03-0.54-0.07-1.04-0.11-1.49c-0.04-0.45-0.08-0.84-0.11-1.15
			C428.82,340.92,428.8,340.73,428.79,340.66"/>
		<path class="st1" d="M440.88,343.17c0.12,0.06,0.28,0.18,0.49,0.37c0.21,0.19,0.37,0.37,0.5,0.55v0.07
			c-0.07,0.06-0.15,0.13-0.24,0.22c-0.09,0.09-0.18,0.18-0.27,0.27c-0.1,0.09-0.18,0.19-0.27,0.27c-0.08,0.09-0.15,0.16-0.19,0.2
			h-0.07c-0.11-0.14-0.25-0.3-0.42-0.48c-0.18-0.18-0.36-0.31-0.55-0.41v-0.07c0-0.01,0.05-0.07,0.14-0.19
			c0.09-0.11,0.2-0.23,0.32-0.34c0.12-0.12,0.23-0.23,0.33-0.33c0.1-0.1,0.16-0.15,0.17-0.15H440.88z M444.14,346.81
			c0.13,0.25,0.25,0.53,0.37,0.85c0.12,0.32,0.22,0.64,0.32,0.98c0.1,0.34,0.17,0.66,0.23,0.98c0.06,0.32,0.09,0.59,0.09,0.83
			c0,0.41-0.1,0.86-0.3,1.35c-0.2,0.49-0.45,0.93-0.74,1.32c-0.18,0.24-0.39,0.48-0.64,0.72c-0.25,0.25-0.54,0.47-0.87,0.68
			c-0.33,0.21-0.71,0.37-1.13,0.5c-0.43,0.13-0.9,0.19-1.43,0.19c-1.04,0-1.86-0.29-2.47-0.86c-0.61-0.58-0.92-1.42-0.92-2.53
			c0-0.24,0.02-0.49,0.06-0.76c0.04-0.27,0.1-0.54,0.16-0.8c0.07-0.27,0.15-0.52,0.24-0.75c0.09-0.24,0.19-0.44,0.3-0.62
			c0.03-0.05,0.06-0.07,0.07-0.07c0.02,0,0.05,0.01,0.07,0.03c0.02,0.02,0.04,0.04,0.05,0.05c-0.02,0.04-0.05,0.12-0.08,0.27
			c-0.03,0.14-0.06,0.3-0.09,0.49c-0.03,0.18-0.06,0.38-0.08,0.58c-0.02,0.21-0.04,0.4-0.04,0.57c0,0.28,0.05,0.59,0.15,0.92
			c0.1,0.33,0.26,0.63,0.48,0.9c0.22,0.27,0.51,0.5,0.87,0.68c0.36,0.18,0.81,0.27,1.34,0.27c0.72,0,1.34-0.1,1.87-0.3
			c0.53-0.2,0.96-0.44,1.3-0.71c0.34-0.27,0.6-0.55,0.77-0.85c0.17-0.29,0.25-0.54,0.25-0.74c0-0.48-0.09-0.89-0.27-1.24
			c-0.18-0.34-0.39-0.67-0.61-0.97c-0.12-0.15-0.18-0.28-0.18-0.39l0.09-0.26l0.69-1.33H444.14z"/>
		<path class="st1" d="M448.83,340.57c0.02,0.47,0.04,1.01,0.05,1.62c0.01,0.61,0.02,1.24,0.02,1.92v1.18c0,0.4-0.01,0.8-0.04,1.18
			c-0.01,0.14-0.02,0.28-0.02,0.41v0.39c0,0.48,0.03,0.91,0.09,1.29c0.06,0.38,0.17,0.7,0.32,0.95c0.15,0.26,0.37,0.45,0.64,0.58
			c0.27,0.13,0.62,0.19,1.04,0.19c0.18,0,0.3,0.06,0.36,0.17c0.07,0.11,0.1,0.29,0.1,0.54v0.09c0,0.27-0.07,0.45-0.22,0.55
			c-0.15,0.09-0.34,0.14-0.59,0.14c-0.59,0-1.06-0.08-1.41-0.25c-0.35-0.16-0.62-0.4-0.8-0.69c-0.18-0.29-0.3-0.63-0.35-1.02
			c-0.05-0.38-0.08-0.8-0.08-1.25v-2.81c0-0.54-0.01-1.11-0.03-1.71c-0.02-0.59-0.05-1.16-0.09-1.69c-0.04-0.53-0.09-1-0.15-1.4
			c-0.06-0.4-0.13-0.68-0.21-0.83c0.09-0.08,0.19-0.19,0.3-0.31c0.11-0.12,0.21-0.24,0.31-0.36c0.1-0.12,0.19-0.23,0.26-0.33
			c0.08-0.1,0.13-0.17,0.17-0.2c0.03-0.03,0.08-0.05,0.13-0.05c0.05,0,0.08,0.02,0.11,0.05c0.03,0.04,0.04,0.07,0.04,0.11
			L448.83,340.57z"/>
		<path class="st1" d="M453.53,353.7c0.12,0.06,0.28,0.18,0.49,0.37c0.21,0.19,0.37,0.37,0.5,0.55v0.07
			c-0.07,0.06-0.15,0.13-0.24,0.22c-0.09,0.09-0.18,0.18-0.27,0.27c-0.09,0.09-0.18,0.18-0.27,0.27c-0.08,0.09-0.15,0.16-0.19,0.2
			h-0.07c-0.11-0.14-0.25-0.3-0.42-0.48c-0.18-0.18-0.36-0.31-0.55-0.41v-0.07c0-0.01,0.05-0.07,0.14-0.19
			c0.1-0.11,0.2-0.23,0.32-0.34c0.12-0.12,0.23-0.23,0.33-0.33c0.1-0.1,0.16-0.15,0.17-0.15H453.53z M451.35,353.7
			c0.12,0.06,0.28,0.18,0.49,0.37c0.21,0.19,0.37,0.37,0.5,0.55v0.07c-0.07,0.06-0.15,0.13-0.24,0.22
			c-0.09,0.09-0.18,0.18-0.27,0.27c-0.09,0.09-0.18,0.18-0.27,0.27c-0.08,0.09-0.15,0.16-0.19,0.2h-0.07
			c-0.11-0.14-0.25-0.3-0.42-0.48c-0.18-0.18-0.36-0.31-0.55-0.41v-0.07c0-0.01,0.05-0.07,0.14-0.19c0.09-0.11,0.2-0.23,0.32-0.34
			c0.12-0.12,0.23-0.23,0.33-0.33c0.1-0.1,0.16-0.15,0.17-0.15H451.35z M450.12,351c0-0.25,0.08-0.43,0.23-0.54
			c0.15-0.11,0.35-0.17,0.58-0.17c0.78,0,1.35-0.1,1.71-0.28c0.36-0.19,0.55-0.44,0.55-0.74c0-0.18-0.05-0.41-0.15-0.72
			c-0.1-0.3-0.34-0.68-0.72-1.16c-0.07-0.08-0.11-0.18-0.11-0.3c0-0.11,0.02-0.2,0.07-0.28l0.69-1.33h0.07
			c0.29,0.54,0.51,1.09,0.65,1.64c0.14,0.55,0.21,1.06,0.21,1.53c0,0.26-0.04,0.51-0.11,0.76c-0.07,0.25-0.16,0.48-0.26,0.69
			c-0.11,0.21-0.22,0.4-0.35,0.57c-0.12,0.17-0.24,0.29-0.34,0.39c-0.25,0.23-0.55,0.41-0.9,0.54c-0.35,0.12-0.81,0.19-1.38,0.19
			c-0.12,0-0.22-0.05-0.32-0.16c-0.09-0.11-0.14-0.28-0.14-0.51V351z"/>
		<path class="st1" d="M460.56,351.28c0-0.21-0.06-0.48-0.18-0.8c-0.12-0.32-0.39-0.78-0.81-1.37c-0.06-0.07-0.11-0.13-0.14-0.17
			c-0.04-0.04-0.06-0.08-0.07-0.11c0.01,0,0.02-0.01,0.02-0.02c0-0.04,0.01-0.07,0.02-0.11l0.69-1.36h0.09
			c0.22,0.53,0.42,0.98,0.6,1.35c0.18,0.37,0.35,0.68,0.53,0.92c0.17,0.24,0.36,0.42,0.56,0.52c0.2,0.11,0.44,0.16,0.71,0.16
			c0.18,0,0.3,0.06,0.36,0.17c0.06,0.11,0.1,0.29,0.1,0.54v0.09c0,0.27-0.07,0.45-0.22,0.55c-0.15,0.1-0.34,0.14-0.59,0.14
			c-0.17,0-0.35-0.05-0.55-0.16c-0.2-0.11-0.35-0.25-0.44-0.43c-0.13,0.83-0.32,1.51-0.6,2.06c-0.27,0.55-0.56,0.98-0.87,1.31
			c-0.31,0.32-0.61,0.55-0.93,0.69c-0.31,0.14-0.57,0.2-0.79,0.2c-0.3,0-0.61-0.03-0.94-0.09c-0.33-0.06-0.64-0.13-0.94-0.21
			c-0.16-0.05-0.33-0.09-0.51-0.14c-0.17-0.05-0.34-0.1-0.5-0.16l0.02-0.11c0.98-0.04,1.81-0.19,2.49-0.46
			c0.68-0.27,1.24-0.59,1.66-0.94c0.42-0.36,0.73-0.73,0.93-1.1C460.46,351.86,460.56,351.54,460.56,351.28"/>
		<path class="st1" d="M464.41,340.66c-0.12-0.12-0.21-0.25-0.28-0.39c-0.07-0.14-0.11-0.31-0.11-0.49c0-0.22,0.06-0.51,0.18-0.86
			c0.12-0.35,0.28-0.63,0.48-0.86c0.03,0.31,0.1,0.56,0.19,0.75c0.1,0.19,0.21,0.36,0.35,0.5c0.14,0.14,0.31,0.26,0.5,0.35
			c0.19,0.1,0.41,0.19,0.65,0.28l-0.64,1.45c0.04,0.94,0.07,1.74,0.09,2.39c0.02,0.65,0.04,1.2,0.06,1.63
			c0.02,0.44,0.03,0.78,0.03,1.02c0.01,0.25,0.01,0.43,0.02,0.56c0.01,0.12,0.01,0.21,0.01,0.25v0.08c0,0.52-0.09,1.04-0.27,1.57
			c-0.18,0.53-0.44,1.01-0.77,1.43c-0.33,0.42-0.73,0.77-1.19,1.03c-0.47,0.27-0.98,0.4-1.53,0.4c-0.12,0-0.22-0.05-0.32-0.16
			c-0.09-0.11-0.14-0.28-0.14-0.51V351c0-0.25,0.08-0.43,0.23-0.54c0.15-0.11,0.35-0.17,0.58-0.17c0.48,0,0.88-0.03,1.19-0.09
			c0.31-0.06,0.56-0.16,0.73-0.31c0.18-0.15,0.3-0.35,0.36-0.61c0.07-0.26,0.1-0.59,0.1-0.99c0-0.34-0.01-0.76-0.04-1.25
			c-0.02-0.49-0.05-1-0.09-1.54c-0.03-0.54-0.07-1.08-0.11-1.63c-0.03-0.54-0.07-1.04-0.11-1.49c-0.04-0.45-0.08-0.84-0.11-1.15
			C464.44,340.92,464.42,340.73,464.41,340.66"/>
		<path class="st1" d="M468.56,340.61c-0.12-0.12-0.23-0.26-0.34-0.42c-0.11-0.16-0.16-0.34-0.16-0.53c0-0.22,0.06-0.51,0.18-0.86
			c0.12-0.35,0.28-0.63,0.48-0.86c0.04,0.31,0.1,0.56,0.19,0.75c0.1,0.19,0.21,0.36,0.35,0.5c0.14,0.14,0.31,0.26,0.5,0.35
			c0.19,0.1,0.41,0.19,0.65,0.28l-0.64,1.34c0.04,0.54,0.07,1.13,0.11,1.78c0.04,0.64,0.07,1.3,0.1,1.97
			c0.03,0.67,0.05,1.34,0.07,2.01c0.02,0.67,0.03,1.28,0.03,1.85c0,0.33-0.02,0.62-0.04,0.87c-0.03,0.25-0.08,0.5-0.16,0.74
			c-0.08,0.24-0.19,0.49-0.33,0.75c-0.14,0.26-0.32,0.55-0.53,0.87h-0.07l-0.09-0.07c0.06-0.31,0.1-0.79,0.11-1.45
			c0.02-0.66,0.03-1.45,0.03-2.37c0-0.57-0.01-1.19-0.05-1.88c-0.03-0.69-0.06-1.37-0.11-2.06c-0.04-0.68-0.09-1.34-0.14-1.96
			C468.66,341.59,468.61,341.05,468.56,340.61"/>
		<path class="st1" d="M479.99,339.65c0.12,0.06,0.28,0.18,0.49,0.37c0.21,0.19,0.37,0.37,0.5,0.55v0.07
			c-0.07,0.06-0.15,0.13-0.24,0.22c-0.09,0.09-0.18,0.18-0.27,0.27c-0.1,0.1-0.18,0.19-0.27,0.27c-0.08,0.09-0.15,0.16-0.19,0.2
			h-0.07c-0.11-0.14-0.25-0.3-0.42-0.48c-0.18-0.18-0.36-0.31-0.55-0.41v-0.07c0-0.01,0.05-0.07,0.14-0.19
			c0.09-0.11,0.2-0.23,0.32-0.34c0.12-0.12,0.23-0.23,0.33-0.33c0.1-0.1,0.16-0.15,0.17-0.15H479.99z M480.12,349.27
			c-0.08-0.38-0.15-0.8-0.21-1.25c-0.06-0.46-0.12-0.99-0.19-1.59c-0.88,0.36-1.57,0.75-2.07,1.15c-0.49,0.4-0.74,0.75-0.74,1.06
			c0,0.06,0.03,0.13,0.1,0.22c0.06,0.09,0.18,0.18,0.35,0.27c0.16,0.09,0.38,0.16,0.66,0.22c0.28,0.06,0.63,0.09,1.07,0.09
			c0.28,0,0.5-0.02,0.66-0.04C479.9,349.35,480.02,349.31,480.12,349.27 M477.82,339.65c0.12,0.06,0.28,0.18,0.49,0.37
			c0.21,0.19,0.37,0.37,0.5,0.55v0.07c-0.07,0.06-0.15,0.13-0.24,0.22c-0.09,0.09-0.18,0.18-0.27,0.27c-0.1,0.1-0.18,0.19-0.27,0.27
			c-0.08,0.09-0.15,0.16-0.19,0.2h-0.07c-0.11-0.14-0.25-0.3-0.42-0.48c-0.18-0.18-0.36-0.31-0.55-0.41v-0.07
			c0-0.01,0.05-0.07,0.14-0.19c0.09-0.11,0.2-0.23,0.32-0.34c0.12-0.12,0.23-0.23,0.33-0.33c0.1-0.1,0.16-0.15,0.17-0.15H477.82z
			 M483.01,350.29c0.18,0,0.3,0.06,0.36,0.17c0.06,0.11,0.1,0.29,0.1,0.54v0.09c0,0.27-0.07,0.45-0.22,0.55
			c-0.15,0.09-0.34,0.14-0.59,0.14c-0.41,0-0.76-0.05-1.05-0.16c-0.29-0.11-0.53-0.25-0.72-0.44c-0.19-0.19-0.35-0.41-0.46-0.68
			c-0.11-0.27-0.2-0.56-0.26-0.87c-0.06,0.06-0.14,0.13-0.26,0.22c-0.11,0.09-0.23,0.18-0.35,0.27c-0.12,0.09-0.25,0.18-0.38,0.27
			c-0.13,0.08-0.24,0.15-0.34,0.19c-0.07,0.03-0.17,0.07-0.3,0.1c-0.13,0.03-0.26,0.04-0.39,0.04c-0.58,0-1.04-0.13-1.4-0.39
			c-0.35-0.26-0.53-0.59-0.53-1.01c0-0.78,0.27-1.5,0.81-2.16c0.54-0.67,1.38-1.32,2.53-1.97c-0.01-0.13-0.04-0.28-0.08-0.44
			c-0.04-0.16-0.07-0.31-0.1-0.44l1.02-0.62l0.05,0.04c0.08,1.46,0.17,2.62,0.27,3.49c0.1,0.87,0.24,1.53,0.41,1.99
			c0.18,0.46,0.41,0.76,0.71,0.89C482.16,350.22,482.54,350.29,483.01,350.29"/>
		<path class="st1" d="M491.05,339.19c-0.01,0.02-0.05,0.1-0.11,0.22c-0.07,0.12-0.14,0.26-0.23,0.41
			c-0.09,0.15-0.18,0.29-0.28,0.42c-0.1,0.13-0.19,0.21-0.27,0.25c-0.47,0.16-0.99,0.34-1.56,0.54c-0.57,0.19-1.11,0.39-1.62,0.59
			c-0.52,0.2-0.99,0.4-1.42,0.59c-0.43,0.2-0.76,0.37-0.98,0.52c0.32,0.33,0.64,0.66,0.96,1c0.32,0.33,0.63,0.66,0.92,0.98
			c0.29,0.32,0.55,0.62,0.8,0.91c0.24,0.29,0.44,0.55,0.59,0.79c0.32,0.49,0.52,0.92,0.61,1.28c0.09,0.36,0.13,0.62,0.13,0.79
			c0,0.51-0.08,0.96-0.22,1.37c-0.15,0.41-0.43,0.75-0.85,1.04c-0.42,0.29-1,0.51-1.76,0.66c-0.75,0.15-1.74,0.23-2.95,0.23
			c-0.4,0-0.6-0.22-0.6-0.67V351c0-0.24,0.07-0.41,0.19-0.51c0.13-0.11,0.3-0.17,0.51-0.19c0.93,0,1.71-0.02,2.35-0.05
			c0.64-0.04,1.15-0.09,1.55-0.18c0.39-0.08,0.68-0.19,0.85-0.32c0.17-0.13,0.26-0.3,0.26-0.49c0-0.18-0.05-0.37-0.14-0.59
			c-0.1-0.22-0.22-0.45-0.37-0.69c-0.15-0.24-0.33-0.49-0.52-0.74c-0.19-0.25-0.39-0.5-0.59-0.73c-0.24-0.28-0.49-0.57-0.75-0.86
			c-0.27-0.29-0.55-0.58-0.86-0.87l-0.16,0.21h-0.07c-0.02-0.02-0.09-0.1-0.19-0.23c-0.1-0.13-0.2-0.27-0.31-0.43
			c-0.11-0.16-0.2-0.32-0.29-0.49c-0.09-0.16-0.13-0.29-0.13-0.39c0-0.11,0.02-0.25,0.07-0.42c0.05-0.18,0.11-0.36,0.18-0.54
			c0.07-0.18,0.15-0.35,0.23-0.5c0.08-0.15,0.16-0.26,0.23-0.32c0.33-0.19,0.76-0.4,1.3-0.64c0.54-0.24,1.12-0.48,1.75-0.72
			c0.63-0.24,1.27-0.46,1.92-0.66c0.65-0.2,1.25-0.36,1.8-0.48L491.05,339.19z"/>
		<path class="st1" d="M501.85,341.42c0.12,0.06,0.28,0.18,0.49,0.37c0.21,0.19,0.37,0.37,0.5,0.55v0.07
			c-0.07,0.06-0.15,0.13-0.24,0.22c-0.09,0.09-0.18,0.18-0.27,0.27c-0.09,0.09-0.18,0.19-0.26,0.27c-0.08,0.09-0.15,0.16-0.19,0.2
			h-0.07c-0.11-0.14-0.25-0.3-0.42-0.48c-0.18-0.18-0.36-0.31-0.55-0.41v-0.07c0-0.01,0.05-0.07,0.14-0.19
			c0.09-0.11,0.2-0.23,0.32-0.34c0.12-0.12,0.23-0.23,0.33-0.33c0.1-0.1,0.16-0.15,0.17-0.15H501.85z M500.67,339.18
			c0.12,0.06,0.28,0.18,0.49,0.37c0.21,0.19,0.37,0.37,0.5,0.55v0.07c-0.07,0.06-0.15,0.13-0.24,0.22
			c-0.09,0.09-0.18,0.18-0.27,0.27c-0.1,0.09-0.18,0.19-0.27,0.27c-0.08,0.09-0.15,0.16-0.2,0.2h-0.07
			c-0.11-0.14-0.25-0.3-0.42-0.48c-0.18-0.18-0.36-0.31-0.55-0.41v-0.07c0-0.01,0.05-0.07,0.14-0.19c0.1-0.11,0.2-0.23,0.32-0.34
			c0.12-0.12,0.23-0.23,0.33-0.33c0.1-0.1,0.16-0.15,0.17-0.15H500.67z M499.68,341.42c0.12,0.06,0.28,0.18,0.49,0.37
			c0.21,0.19,0.37,0.37,0.5,0.55v0.07c-0.07,0.06-0.15,0.13-0.24,0.22c-0.09,0.09-0.18,0.18-0.27,0.27
			c-0.09,0.09-0.18,0.19-0.27,0.27c-0.08,0.09-0.15,0.16-0.19,0.2h-0.07c-0.11-0.14-0.25-0.3-0.43-0.48
			c-0.18-0.18-0.36-0.31-0.55-0.41v-0.07c0-0.01,0.05-0.07,0.14-0.19c0.09-0.11,0.2-0.23,0.32-0.34c0.12-0.12,0.23-0.23,0.33-0.33
			c0.1-0.1,0.16-0.15,0.17-0.15H499.68z M498.81,350.29c0.31,0,0.58-0.04,0.82-0.12c0.24-0.08,0.45-0.18,0.63-0.31
			c0.18-0.12,0.32-0.26,0.43-0.41c0.11-0.15,0.19-0.29,0.24-0.42c0.13-0.33,0.26-0.59,0.38-0.8c0.12-0.2,0.23-0.33,0.31-0.39
			c0.01-0.01,0.03-0.02,0.05-0.02c0.02,0,0.05,0.01,0.07,0.03c0.02,0.02,0.04,0.03,0.05,0.04c-0.06,0.09-0.11,0.25-0.16,0.46
			c-0.05,0.21-0.07,0.41-0.07,0.6c0,0.39,0.1,0.71,0.31,0.95c0.21,0.25,0.56,0.37,1.07,0.37c0.61,0,1.04-0.09,1.29-0.28
			c0.25-0.19,0.37-0.44,0.37-0.74c0-0.18-0.05-0.42-0.15-0.72c-0.1-0.3-0.34-0.69-0.72-1.16c-0.07-0.08-0.11-0.18-0.11-0.3
			c0-0.11,0.02-0.2,0.07-0.28l0.69-1.32h0.07c0.29,0.54,0.51,1.09,0.65,1.63c0.14,0.55,0.21,1.06,0.21,1.53
			c0,0.26-0.04,0.51-0.11,0.76c-0.07,0.25-0.16,0.48-0.26,0.69c-0.11,0.21-0.22,0.4-0.35,0.57c-0.12,0.16-0.24,0.29-0.34,0.39
			c-0.25,0.24-0.5,0.42-0.77,0.54c-0.27,0.12-0.55,0.18-0.86,0.18c-0.14,0-0.29-0.02-0.45-0.05c-0.16-0.04-0.32-0.1-0.47-0.2
			c-0.15-0.1-0.29-0.24-0.42-0.41c-0.12-0.17-0.21-0.4-0.27-0.68c-0.34,0.38-0.72,0.7-1.14,0.95c-0.42,0.26-0.9,0.39-1.44,0.39
			c-0.27,0-0.54-0.04-0.8-0.11c-0.26-0.07-0.51-0.19-0.74-0.36c-0.23-0.17-0.42-0.4-0.58-0.68c-0.16-0.28-0.26-0.63-0.31-1.04
			l-2.4,0.78c0.09,0.14,0.19,0.37,0.28,0.69c0.09,0.32,0.14,0.64,0.14,0.97c0,1.03-0.13,1.89-0.38,2.59
			c-0.25,0.7-0.56,1.27-0.91,1.71c-0.35,0.44-0.71,0.75-1.08,0.94c-0.36,0.2-0.66,0.29-0.88,0.29c-0.29,0-0.61-0.03-0.95-0.09
			c-0.34-0.06-0.65-0.13-0.94-0.21c-0.17-0.05-0.34-0.1-0.51-0.15c-0.18-0.05-0.35-0.11-0.51-0.17l0.02-0.11
			c0.94-0.02,1.76-0.17,2.45-0.42c0.69-0.26,1.26-0.59,1.71-0.99c0.45-0.4,0.78-0.85,1-1.33c0.22-0.49,0.33-0.98,0.33-1.46
			c0-0.44-0.11-0.82-0.33-1.16c-0.22-0.34-0.61-0.66-1.17-0.98c0.36-0.97,0.6-1.46,0.71-1.48c0.2-0.05,0.42-0.09,0.67-0.13
			c0.25-0.04,0.51-0.09,0.8-0.15c0.38-0.08,0.7-0.16,0.95-0.22c0.26-0.06,0.48-0.13,0.65-0.19c0.18-0.06,0.32-0.13,0.43-0.19
			c0.11-0.07,0.21-0.14,0.31-0.24c0.12-0.11,0.21-0.22,0.28-0.34c0.07-0.12,0.14-0.21,0.21-0.28c0.02-0.02,0.05-0.03,0.07-0.03
			s0.05,0.01,0.07,0.03c0.02,0.02,0.04,0.03,0.05,0.04c-0.06,0.09-0.11,0.25-0.16,0.46c-0.05,0.21-0.07,0.41-0.07,0.6
			c0,0.25,0.03,0.49,0.1,0.72c0.07,0.24,0.17,0.44,0.33,0.62c0.15,0.18,0.35,0.32,0.6,0.43
			C498.12,350.23,498.43,350.29,498.81,350.29"/>
	</g>
	<path class="st1" d="M399.95,315.1v5.16h-0.25c-0.28-1.97-0.72-3.33-1.32-4.07c-0.5-0.62-1.23-0.93-2.19-0.93
		c-0.24,0-0.37,0.01-0.4,0.04c-0.05,0.04-0.07,0.19-0.07,0.47v9.81c0,0.35,0.02,0.58,0.07,0.67c0.02,0.05,0.11,0.1,0.25,0.16
		c0.14,0.05,0.42,0.1,0.83,0.14c0.41,0.04,0.97,0.05,1.67,0.05v0.18h-7.88v-0.18c0.69,0,1.24-0.02,1.65-0.05
		c0.41-0.04,0.69-0.08,0.83-0.14c0.14-0.05,0.24-0.12,0.28-0.2c0.04-0.08,0.06-0.29,0.06-0.63v-9.79c0-0.31-0.04-0.49-0.11-0.51
		c-0.04-0.01-0.16-0.02-0.38-0.02c-0.94,0-1.66,0.3-2.16,0.91c-0.6,0.75-1.06,2.1-1.36,4.05h-0.25v-5.13H399.95z"/>
	<path class="st1" d="M405.87,322.98c0-1.34-0.12-2.28-0.34-2.83c-0.27-0.63-0.76-0.94-1.47-0.94c-0.65,0-1.12,0.3-1.39,0.91
		c-0.28,0.6-0.42,1.56-0.42,2.86c0,1.33,0.12,2.29,0.37,2.9c0.25,0.6,0.73,0.9,1.44,0.9c0.65,0,1.12-0.31,1.39-0.92
		C405.73,325.25,405.87,324.29,405.87,322.98 M407.76,322.98c0,1.17-0.4,2.14-1.21,2.92c-0.74,0.7-1.56,1.05-2.48,1.05
		c-0.94,0-1.76-0.33-2.46-0.98c-0.82-0.76-1.23-1.76-1.23-2.99c0-1.17,0.4-2.14,1.21-2.9c0.74-0.69,1.56-1.03,2.48-1.03
		c0.93,0,1.75,0.33,2.46,0.98C407.35,320.78,407.76,321.76,407.76,322.98"/>
	<path class="st1" d="M414.06,320.18c0-0.28-0.03-0.46-0.1-0.56c-0.07-0.09-0.17-0.15-0.33-0.17c-0.15-0.02-0.64-0.04-1.48-0.04
		v-0.16l3.6-0.2v6.15c0,0.16,0,0.31,0.01,0.47c0.01,0.16,0.03,0.27,0.08,0.34l0.11,0.18c0.12,0.08,0.58,0.13,1.38,0.13v0.16
		l-3.28,0.29v-2.29c-0.07,0.49-0.25,0.95-0.54,1.37c-0.37,0.54-0.83,0.84-1.38,0.9c-0.07,0.01-0.14,0.02-0.22,0.02h-0.22
		c-0.71,0-1.27-0.22-1.67-0.67c-0.34-0.38-0.51-0.83-0.51-1.36v-4.74c0-0.22-0.03-0.37-0.08-0.45c-0.05-0.08-0.14-0.13-0.24-0.14
		c-0.11-0.01-0.39-0.02-0.85-0.02h-0.42v-0.16l3.3-0.2v5.97c0,0.62,0.08,1.03,0.23,1.25c0.15,0.22,0.37,0.33,0.66,0.33
		c0.54,0,1-0.33,1.38-0.98c0.37-0.65,0.56-1.37,0.56-2.13V320.18z"/>
	<path class="st1" d="M419.26,320.25c0-0.24-0.02-0.4-0.07-0.46c-0.08-0.12-0.16-0.19-0.24-0.22c-0.22-0.06-0.71-0.09-1.49-0.09
		v-0.16l3.5-0.27v2.3c0.05-0.49,0.22-0.96,0.51-1.39c0.4-0.6,0.9-0.9,1.5-0.9c0.23,0,0.48,0.08,0.74,0.23
		c0.27,0.15,0.44,0.34,0.54,0.57c0.09,0.23,0.14,0.43,0.14,0.62c0,0.48-0.2,0.81-0.6,1c-0.1,0.05-0.23,0.07-0.38,0.07
		c-0.24,0-0.45-0.08-0.62-0.25c-0.17-0.17-0.26-0.42-0.26-0.76c0-0.22,0.08-0.43,0.25-0.65c0.16-0.22,0.36-0.3,0.57-0.25
		c-0.07-0.26-0.29-0.38-0.65-0.38c-0.35,0-0.7,0.26-1.05,0.76c-0.46,0.66-0.69,1.5-0.69,2.53v3.39c0,0.24,0.02,0.4,0.05,0.47
		c0.02,0.04,0.08,0.07,0.16,0.11c0.25,0.08,0.78,0.13,1.57,0.13v0.16h-5.29v-0.16c0.35,0,0.67-0.01,0.95-0.04
		c0.28-0.02,0.53-0.07,0.73-0.15c0.07-0.06,0.11-0.24,0.11-0.53V320.25z"/>
	<path class="st1" d="M427.2,314.96c0.29,0,0.53,0.1,0.72,0.29c0.19,0.19,0.29,0.43,0.29,0.72c0,0.29-0.1,0.53-0.29,0.72
		c-0.19,0.19-0.43,0.29-0.72,0.29c-0.29,0-0.53-0.1-0.72-0.29c-0.19-0.19-0.29-0.43-0.29-0.72c0-0.29,0.1-0.53,0.29-0.72
		C426.67,315.06,426.91,314.96,427.2,314.96 M428.15,319.05v6.86c0,0.24,0.02,0.4,0.05,0.47c0.02,0.04,0.08,0.07,0.16,0.11
		c0.25,0.08,0.78,0.13,1.57,0.13v0.16h-5.29v-0.16c0.35,0,0.67-0.01,0.95-0.04c0.28-0.02,0.53-0.07,0.73-0.14
		c0.07-0.06,0.11-0.24,0.11-0.53v-5.66c0-0.23-0.03-0.38-0.07-0.44c-0.08-0.12-0.16-0.19-0.24-0.22c-0.22-0.06-0.71-0.09-1.49-0.09
		v-0.16L428.15,319.05z"/>
	<path class="st1" d="M434.74,319.61c0.47-0.35,0.72-0.54,0.74-0.56v2.72l-0.14-0.04c-0.17-0.72-0.47-1.32-0.91-1.77
		c-0.47-0.49-0.99-0.74-1.56-0.74c-0.43,0-0.79,0.08-1.07,0.25c-0.38,0.23-0.56,0.61-0.56,1.14c0,0.43,0.2,0.77,0.61,1.01
		c0.29,0.17,0.87,0.36,1.73,0.56c0.87,0.21,1.47,0.45,1.82,0.73c0.49,0.39,0.74,1,0.74,1.85c0,0.78-0.27,1.36-0.8,1.74
		c-0.42,0.3-0.95,0.45-1.59,0.45c-0.53,0-0.91-0.04-1.14-0.11c-0.34-0.11-0.71-0.37-1.11-0.78c-0.48,0.57-0.74,0.86-0.76,0.89v-3.21
		h0.13c0.21,0.75,0.38,1.27,0.51,1.56c0.18,0.4,0.38,0.69,0.58,0.89c0.28,0.27,0.54,0.43,0.79,0.5c0.25,0.07,0.62,0.1,1.12,0.1
		c0.38,0,0.69-0.1,0.93-0.29c0.29-0.23,0.44-0.56,0.44-0.98c0-0.54-0.19-0.95-0.58-1.21c-0.3-0.21-0.84-0.39-1.61-0.54
		c-0.77-0.16-1.37-0.41-1.79-0.76c-0.51-0.42-0.76-0.98-0.76-1.68c0-0.63,0.21-1.16,0.64-1.6c0.43-0.44,0.95-0.66,1.57-0.66
		c0.47,0,0.88,0.08,1.23,0.24C434.4,319.49,434.67,319.6,434.74,319.61"/>
	<path class="st1" d="M444.41,321.25c0.1-0.55,0.24-0.99,0.41-1.32c0.3-0.52,0.72-0.81,1.24-0.87c0.08,0,0.18-0.01,0.28-0.02
		c0.1-0.01,0.18-0.02,0.23-0.02c0.75,0,1.34,0.23,1.79,0.69c0.37,0.39,0.56,0.85,0.56,1.38v4.81c0,0.23,0.02,0.38,0.06,0.45
		c0.02,0.05,0.08,0.09,0.17,0.13c0.09,0.03,0.25,0.07,0.49,0.09c0.24,0.02,0.43,0.04,0.59,0.04v0.16h-4.29v-0.16
		c0.29,0,0.51-0.01,0.67-0.03c0.16-0.02,0.33-0.08,0.51-0.17c0.07-0.06,0.11-0.23,0.11-0.51v-4.61c0-0.57-0.05-1.01-0.15-1.33
		c-0.16-0.5-0.44-0.75-0.86-0.75c-0.43,0-0.78,0.2-1.06,0.6c-0.32,0.45-0.56,1.26-0.73,2.44v3.64c0,0.24,0.02,0.4,0.05,0.47
		c0.02,0.04,0.08,0.07,0.16,0.1c0.08,0.03,0.24,0.06,0.46,0.09c0.22,0.03,0.43,0.05,0.62,0.05v0.16h-4.31v-0.16
		c0.46,0,0.82-0.04,1.07-0.13l0.13-0.06c0.07-0.06,0.11-0.24,0.11-0.53v-4.61c0-0.58-0.05-1.02-0.14-1.33
		c-0.16-0.5-0.45-0.75-0.87-0.75c-0.54,0-0.97,0.35-1.27,1.04c-0.21,0.49-0.37,1.18-0.49,2.08v3.57c0,0.24,0.02,0.4,0.05,0.47
		c0.02,0.04,0.08,0.07,0.17,0.11c0.09,0.03,0.25,0.07,0.49,0.09c0.24,0.02,0.43,0.04,0.59,0.04v0.16h-4.58v-0.16
		c0.25,0,0.51-0.01,0.77-0.04c0.26-0.02,0.49-0.07,0.7-0.15c0.07-0.06,0.11-0.24,0.11-0.53v-5.5c0-0.11,0-0.22-0.01-0.33
		c-0.01-0.11-0.03-0.19-0.08-0.25c-0.08-0.12-0.16-0.19-0.22-0.22c-0.18-0.06-0.6-0.09-1.25-0.09v-0.16l3.26-0.31v2.31
		c0.08-0.58,0.21-1.03,0.38-1.37c0.28-0.55,0.69-0.86,1.24-0.92c0.12-0.01,0.23-0.02,0.32-0.03c0.09-0.01,0.16-0.01,0.21-0.01
		c0.78,0,1.36,0.22,1.76,0.65C444.23,320.08,444.41,320.6,444.41,321.25"/>
	<path class="st1" d="M459.59,316.25v9.34c0,0.35,0.02,0.57,0.07,0.67c0.02,0.05,0.1,0.1,0.22,0.14c0.35,0.13,1.07,0.2,2.16,0.2
		v0.18h-7.14v-0.18c0.52,0,0.97-0.02,1.35-0.05c0.38-0.04,0.64-0.08,0.78-0.14c0.14-0.05,0.23-0.12,0.27-0.2
		c0.04-0.08,0.06-0.29,0.06-0.63v-9.34c0-0.34-0.02-0.55-0.07-0.64c-0.03-0.05-0.1-0.1-0.24-0.14c-0.35-0.13-1.07-0.2-2.16-0.2
		v-0.16h7.15v0.16c-0.52,0-0.97,0.02-1.35,0.05c-0.38,0.04-0.65,0.08-0.81,0.14l-0.18,0.07
		C459.63,315.61,459.59,315.85,459.59,316.25"/>
	<path class="st1" d="M465.71,322.35v3.57c0,0.24,0.02,0.4,0.05,0.47c0.02,0.04,0.08,0.07,0.17,0.11c0.09,0.04,0.25,0.07,0.49,0.09
		c0.23,0.02,0.44,0.04,0.62,0.04v0.16h-4.64v-0.16c0.27,0,0.53-0.01,0.79-0.04c0.26-0.03,0.49-0.07,0.7-0.15
		c0.07-0.06,0.11-0.24,0.11-0.53v-5.52c0-0.11,0-0.22-0.01-0.33c-0.01-0.11-0.03-0.19-0.08-0.25l-0.11-0.18
		c-0.12-0.08-0.58-0.13-1.38-0.13v-0.16l3.28-0.29v2.31c0.07-0.52,0.23-0.97,0.47-1.37c0.34-0.55,0.69-0.85,1.07-0.89
		c0.37-0.04,0.62-0.06,0.72-0.06c0.76,0,1.36,0.23,1.81,0.69c0.37,0.39,0.56,0.85,0.56,1.38v4.81c0,0.24,0.02,0.4,0.05,0.47
		c0.02,0.04,0.08,0.07,0.18,0.11c0.1,0.04,0.27,0.07,0.52,0.09c0.25,0.02,0.5,0.04,0.73,0.04v0.16h-4.64v-0.16
		c0.19,0,0.42-0.01,0.67-0.04c0.25-0.03,0.48-0.07,0.67-0.15c0.07-0.06,0.11-0.24,0.11-0.53v-4.6c0-0.58-0.05-1.02-0.15-1.33
		c-0.16-0.5-0.45-0.75-0.87-0.75c-0.56,0-1.01,0.35-1.36,1.04C466.01,320.79,465.82,321.48,465.71,322.35"/>
	<path class="st1" d="M475.58,326.88l-2.54-6.97c-0.11-0.28-0.17-0.44-0.2-0.49c-0.07-0.12-0.28-0.18-0.63-0.18h-0.42v-0.18h4.15
		v0.18c-0.28,0-0.56,0-0.84,0.01c-0.28,0.01-0.43,0.08-0.43,0.23l0.11,0.36l1.72,4.67l1.22-3.56c0.14-0.42,0.22-0.75,0.22-0.98
		c0-0.48-0.41-0.73-1.21-0.73v-0.18h3.06v0.18c-0.46,0-0.82,0.11-1.07,0.34c-0.25,0.22-0.54,0.78-0.86,1.68l-1.93,5.63H475.58z"/>
	<path class="st1" d="M485.02,322.84c0-1.17-0.11-2.06-0.31-2.68c-0.21-0.61-0.55-0.92-1.01-0.92c-0.66,0-1.12,0.29-1.39,0.88
		c-0.27,0.59-0.4,1.49-0.4,2.73H485.02z M481.9,323.05c0,1.3,0.15,2.24,0.46,2.82c0.31,0.58,0.78,0.87,1.4,0.87
		c0.66,0,1.25-0.23,1.76-0.67c0.62-0.55,0.92-1.29,0.92-2.22h0.14c0,0.9-0.29,1.65-0.87,2.23c-0.58,0.58-1.35,0.87-2.32,0.87
		c-0.81,0-1.55-0.31-2.21-0.92c-0.78-0.72-1.18-1.67-1.18-2.84c0-1.27,0.39-2.3,1.16-3.1c0.68-0.69,1.44-1.03,2.28-1.03
		c0.78,0,1.44,0.23,1.95,0.69c0.76,0.68,1.14,1.78,1.14,3.31H481.9z"/>
	<path class="st1" d="M491.54,319.61c0.47-0.35,0.72-0.54,0.74-0.56v2.72l-0.14-0.04c-0.17-0.72-0.47-1.32-0.91-1.77
		c-0.47-0.49-0.99-0.74-1.56-0.74c-0.43,0-0.79,0.08-1.07,0.25c-0.38,0.23-0.56,0.61-0.56,1.14c0,0.43,0.2,0.77,0.61,1.01
		c0.29,0.17,0.87,0.36,1.73,0.56c0.87,0.21,1.47,0.45,1.82,0.73c0.49,0.39,0.74,1,0.74,1.85c0,0.78-0.27,1.36-0.8,1.74
		c-0.42,0.3-0.95,0.45-1.59,0.45c-0.53,0-0.91-0.04-1.14-0.11c-0.34-0.11-0.71-0.37-1.11-0.78c-0.48,0.57-0.74,0.86-0.76,0.89v-3.21
		h0.13c0.21,0.75,0.38,1.27,0.51,1.56c0.18,0.4,0.38,0.69,0.58,0.89c0.28,0.27,0.54,0.43,0.79,0.5c0.25,0.07,0.62,0.1,1.12,0.1
		c0.38,0,0.68-0.1,0.93-0.29c0.29-0.23,0.44-0.56,0.44-0.98c0-0.54-0.19-0.95-0.58-1.21c-0.3-0.21-0.84-0.39-1.61-0.54
		c-0.77-0.16-1.37-0.41-1.79-0.76c-0.51-0.42-0.76-0.98-0.76-1.68c0-0.63,0.21-1.16,0.64-1.6c0.43-0.44,0.95-0.66,1.57-0.66
		c0.47,0,0.88,0.08,1.23,0.24C491.2,319.49,491.46,319.6,491.54,319.61"/>
	<path class="st1" d="M498.65,322.93v0.83c0,0.28,0.01,0.54,0.02,0.8c0,0.84-0.1,1.42-0.29,1.74c-0.27,0.43-0.78,0.65-1.54,0.65
		c-0.72,0-1.26-0.17-1.59-0.52c-0.34-0.35-0.51-0.85-0.51-1.5v-5.14h-1.45v-0.16c0.99-0.24,1.74-0.82,2.24-1.73
		c0.4-0.73,0.61-1.55,0.61-2.46h0.31v3.82h2.08v0.53h-2.08v4.91c0,0.65,0.02,1.07,0.07,1.26c0.12,0.46,0.39,0.69,0.8,0.69
		c0.49,0,0.81-0.26,0.96-0.79c0.11-0.36,0.16-1.05,0.16-2.05v-0.87H498.65z"/>
	<path class="st1" d="M506.8,321.25c0.1-0.55,0.24-0.99,0.42-1.32c0.3-0.52,0.71-0.81,1.24-0.87c0.08,0,0.18-0.01,0.28-0.02
		c0.1-0.01,0.18-0.02,0.22-0.02c0.75,0,1.34,0.23,1.79,0.69c0.37,0.39,0.56,0.85,0.56,1.38v4.81c0,0.23,0.02,0.38,0.05,0.45
		c0.02,0.05,0.08,0.09,0.17,0.13c0.09,0.03,0.25,0.07,0.49,0.09c0.24,0.02,0.43,0.04,0.59,0.04v0.16h-4.29v-0.16
		c0.29,0,0.51-0.01,0.67-0.03c0.16-0.02,0.33-0.08,0.51-0.17c0.07-0.06,0.11-0.23,0.11-0.51v-4.61c0-0.57-0.05-1.01-0.14-1.33
		c-0.16-0.5-0.44-0.75-0.86-0.75c-0.43,0-0.78,0.2-1.06,0.6c-0.32,0.45-0.56,1.26-0.73,2.44v3.64c0,0.24,0.02,0.4,0.05,0.47
		c0.02,0.04,0.08,0.07,0.16,0.1c0.08,0.03,0.24,0.06,0.46,0.09c0.22,0.03,0.43,0.05,0.62,0.05v0.16h-4.31v-0.16
		c0.46,0,0.81-0.04,1.07-0.13l0.13-0.06c0.07-0.06,0.11-0.24,0.11-0.53v-4.61c0-0.58-0.05-1.02-0.14-1.33
		c-0.16-0.5-0.45-0.75-0.87-0.75c-0.54,0-0.97,0.35-1.27,1.04c-0.21,0.49-0.37,1.18-0.49,2.08v3.57c0,0.24,0.02,0.4,0.05,0.47
		c0.02,0.04,0.08,0.07,0.17,0.11c0.09,0.03,0.25,0.07,0.49,0.09c0.24,0.02,0.43,0.04,0.59,0.04v0.16h-4.58v-0.16
		c0.25,0,0.51-0.01,0.77-0.04c0.26-0.02,0.49-0.07,0.7-0.15c0.07-0.06,0.11-0.24,0.11-0.53v-5.5c0-0.11,0-0.22-0.01-0.33
		c-0.01-0.11-0.03-0.19-0.08-0.25c-0.08-0.12-0.16-0.19-0.22-0.22c-0.18-0.06-0.6-0.09-1.25-0.09v-0.16l3.26-0.31v2.31
		c0.08-0.58,0.21-1.03,0.38-1.37c0.28-0.55,0.69-0.86,1.24-0.92c0.12-0.01,0.23-0.02,0.32-0.03c0.09-0.01,0.16-0.01,0.21-0.01
		c0.78,0,1.36,0.22,1.76,0.65C506.62,320.08,506.8,320.6,506.8,321.25"/>
	<path class="st1" d="M517.92,322.84c0-1.17-0.1-2.06-0.31-2.68c-0.21-0.61-0.55-0.92-1.01-0.92c-0.66,0-1.12,0.29-1.39,0.88
		c-0.27,0.59-0.4,1.49-0.4,2.73H517.92z M514.81,323.05c0,1.3,0.15,2.24,0.46,2.82c0.31,0.58,0.78,0.87,1.4,0.87
		c0.66,0,1.25-0.23,1.76-0.67c0.62-0.55,0.92-1.29,0.92-2.22h0.14c0,0.9-0.29,1.65-0.87,2.23c-0.58,0.58-1.35,0.87-2.32,0.87
		c-0.81,0-1.55-0.31-2.21-0.92c-0.78-0.72-1.18-1.67-1.18-2.84c0-1.27,0.39-2.3,1.16-3.1c0.68-0.69,1.44-1.03,2.28-1.03
		c0.78,0,1.44,0.23,1.96,0.69c0.76,0.68,1.14,1.78,1.14,3.31H514.81z"/>
	<path class="st1" d="M523.36,322.35v3.57c0,0.24,0.02,0.4,0.05,0.47c0.02,0.04,0.08,0.07,0.17,0.11c0.09,0.04,0.25,0.07,0.49,0.09
		c0.24,0.02,0.44,0.04,0.62,0.04v0.16h-4.64v-0.16c0.27,0,0.53-0.01,0.79-0.04c0.26-0.03,0.49-0.07,0.7-0.15
		c0.07-0.06,0.11-0.24,0.11-0.53v-5.52c0-0.11,0-0.22-0.01-0.33c-0.01-0.11-0.03-0.19-0.08-0.25l-0.11-0.18
		c-0.12-0.08-0.58-0.13-1.38-0.13v-0.16l3.28-0.29v2.31c0.07-0.52,0.23-0.97,0.47-1.37c0.34-0.55,0.69-0.85,1.07-0.89
		c0.37-0.04,0.62-0.06,0.72-0.06c0.76,0,1.36,0.23,1.81,0.69c0.37,0.39,0.56,0.85,0.56,1.38v4.81c0,0.24,0.02,0.4,0.06,0.47
		c0.02,0.04,0.08,0.07,0.18,0.11c0.1,0.04,0.27,0.07,0.53,0.09c0.25,0.02,0.49,0.04,0.72,0.04v0.16h-4.64v-0.16
		c0.19,0,0.42-0.01,0.67-0.04c0.25-0.03,0.48-0.07,0.67-0.15c0.07-0.06,0.11-0.24,0.11-0.53v-4.6c0-0.58-0.05-1.02-0.15-1.33
		c-0.16-0.5-0.45-0.75-0.87-0.75c-0.56,0-1.01,0.35-1.36,1.04C523.65,320.79,523.47,321.48,523.36,322.35"/>
	<path class="st1" d="M534.97,322.93v0.83c0,0.28,0.01,0.54,0.02,0.8c0,0.84-0.1,1.42-0.29,1.74c-0.27,0.43-0.78,0.65-1.54,0.65
		c-0.72,0-1.26-0.17-1.59-0.52c-0.34-0.35-0.51-0.85-0.51-1.5v-5.14h-1.45v-0.16c0.99-0.24,1.74-0.82,2.24-1.73
		c0.4-0.73,0.61-1.55,0.61-2.46h0.31v3.82h2.08v0.53h-2.08v4.91c0,0.65,0.02,1.07,0.07,1.26c0.12,0.46,0.39,0.69,0.8,0.69
		c0.49,0,0.81-0.26,0.96-0.79c0.11-0.36,0.16-1.05,0.16-2.05v-0.87H534.97z"/>
	<path class="st1" d="M549.26,321.93c0,1.75-0.33,3.02-1.01,3.82c-0.67,0.8-1.64,1.2-2.91,1.2c-1.44,0-2.65-0.43-3.64-1.3
		c-1.18-1.04-1.77-2.53-1.77-4.47c0-1.89,0.6-3.45,1.8-4.66c1.03-1.04,2.13-1.56,3.3-1.56c0.57,0,1.06,0.1,1.49,0.31
		c0.54,0.27,1.04,0.7,1.49,1.3l0.89-1.7h0.09v5.25l-0.14-0.09c0-1.55-0.43-2.8-1.29-3.74c-0.72-0.78-1.47-1.17-2.25-1.17
		c-1.05,0-1.81,0.49-2.27,1.46c-0.46,0.97-0.69,2.43-0.69,4.39c0,1.92,0.25,3.37,0.74,4.35c0.5,0.98,1.25,1.47,2.27,1.47
		c1.15,0,2.04-0.34,2.65-1.01c0.74-0.8,1.11-2.08,1.11-3.84H549.26z"/>
	<path class="st1" d="M555.34,322.98c0-1.34-0.12-2.28-0.34-2.83c-0.27-0.63-0.76-0.94-1.47-0.94c-0.65,0-1.12,0.3-1.39,0.91
		c-0.28,0.6-0.42,1.56-0.42,2.86c0,1.33,0.12,2.29,0.37,2.9c0.25,0.6,0.73,0.9,1.44,0.9c0.65,0,1.12-0.31,1.39-0.92
		C555.2,325.25,555.34,324.29,555.34,322.98 M557.22,322.98c0,1.17-0.4,2.14-1.21,2.92c-0.74,0.7-1.56,1.05-2.48,1.05
		c-0.94,0-1.76-0.33-2.46-0.98c-0.82-0.76-1.23-1.76-1.23-2.99c0-1.17,0.4-2.14,1.21-2.9c0.74-0.69,1.56-1.03,2.48-1.03
		c0.93,0,1.75,0.33,2.46,0.98C556.81,320.78,557.22,321.76,557.22,322.98"/>
	<path class="st1" d="M558.97,324.74c0.32,0,0.58,0.11,0.79,0.32c0.21,0.21,0.32,0.47,0.32,0.79c0,0.31-0.11,0.58-0.32,0.79
		c-0.21,0.21-0.48,0.32-0.79,0.32c-0.32,0-0.58-0.11-0.8-0.32c-0.21-0.21-0.32-0.47-0.32-0.79c0-0.31,0.11-0.58,0.32-0.79
		C558.39,324.85,558.66,324.74,558.97,324.74"/>
	<path class="st1" d="M320.76,322.57l-1.64-4.56l-1.64,4.56H320.76z M320.85,322.76h-3.45l-0.55,1.58c-0.14,0.4-0.21,0.74-0.21,1.02
		c0,0.45,0.17,0.76,0.5,0.95c0.33,0.19,0.81,0.29,1.41,0.29v0.18H314v-0.18c0.82,0,1.46-0.31,1.92-0.93
		c0.25-0.35,0.57-1.06,0.97-2.15l3.02-8.42h0.36l3.86,10.5c0.18,0.49,0.36,0.78,0.54,0.87c0.18,0.09,0.72,0.13,1.61,0.13v0.18h-6.6
		v-0.18c0.9,0,1.51-0.03,1.84-0.1c0.33-0.07,0.5-0.2,0.5-0.4l-0.04-0.18L320.85,322.76z"/>
	<path class="st1" d="M329.77,325.93c0,0.24,0.02,0.39,0.05,0.47c0.02,0.04,0.08,0.07,0.16,0.11c0.25,0.08,0.77,0.13,1.56,0.13v0.16
		h-5.23v-0.16c0.35,0,0.66-0.01,0.94-0.04c0.28-0.02,0.52-0.07,0.72-0.14c0.07-0.06,0.11-0.23,0.11-0.52v-9.59
		c0-0.24-0.04-0.41-0.11-0.5c-0.07-0.1-0.14-0.16-0.22-0.18c-0.21-0.06-0.69-0.09-1.43-0.09v-0.16l3.43-0.3V325.93z"/>
	<path class="st1" d="M339.05,320.6h1.66c0.87,0,1.51-0.16,1.92-0.49c0.5-0.38,0.75-1.03,0.75-1.95c0-1.01-0.21-1.72-0.62-2.13
		c-0.41-0.41-1.09-0.62-2.04-0.62h-0.86c-0.25,0-0.43,0.02-0.55,0.05c-0.12,0.04-0.19,0.11-0.22,0.23
		c-0.03,0.11-0.04,0.34-0.04,0.69V320.6z M346.3,324.21v0.59c0,0.7-0.07,1.19-0.2,1.47c-0.22,0.45-0.64,0.68-1.28,0.68
		c-0.83,0-1.37-0.31-1.64-0.93c-0.22-0.5-0.32-1.46-0.32-2.86v-0.38c0-0.12,0.01-0.24,0.02-0.38c0-0.63-0.15-1.06-0.45-1.28
		c-0.3-0.22-0.72-0.33-1.28-0.33h-2.1v4.81c0,0.36,0.02,0.59,0.06,0.68c0.04,0.09,0.13,0.17,0.27,0.22c0.14,0.05,0.42,0.09,0.84,0.1
		c0.42,0.01,0.87,0.02,1.33,0.02v0.16h-7.28v-0.18c1.25,0,2-0.05,2.25-0.14c0.12-0.05,0.2-0.12,0.25-0.21
		c0.05-0.09,0.07-0.31,0.07-0.65v-9.23c0-0.34-0.02-0.54-0.07-0.63c-0.02-0.05-0.1-0.1-0.23-0.14c-0.35-0.13-1.1-0.2-2.27-0.2v-0.16
		h7.32c1.29,0,2.31,0.35,3.08,1.04c0.61,0.55,0.91,1.12,0.91,1.7c0,0.69-0.24,1.26-0.72,1.7c-0.58,0.54-1.49,0.88-2.73,1.02
		c1.27,0.25,2.11,0.96,2.52,2.13c0.21,0.58,0.31,1.46,0.31,2.64c0,0.35,0.03,0.59,0.09,0.75c0.06,0.16,0.21,0.23,0.43,0.23
		c0.25,0,0.43-0.2,0.53-0.6c0.1-0.4,0.14-0.95,0.14-1.65H346.3z"/>
	<path class="st1" d="M351.61,324.83v-2.39c-0.14,0.19-0.35,0.31-0.63,0.35c-0.28,0.04-0.55,0.08-0.81,0.12
		c-0.35,0.08-0.62,0.28-0.82,0.58c-0.24,0.36-0.36,0.86-0.36,1.51c0,0.7,0.07,1.17,0.21,1.41c0.14,0.25,0.36,0.37,0.65,0.37
		c0.45,0,0.86-0.19,1.23-0.57C351.43,325.83,351.61,325.37,351.61,324.83 M351.67,321.59v-1.04c0-0.48-0.08-0.8-0.23-0.97
		c-0.15-0.17-0.48-0.25-0.98-0.25c-0.41,0-0.77,0.08-1.08,0.24c-0.31,0.16-0.51,0.37-0.61,0.64c0.05-0.01,0.11-0.02,0.18-0.02
		c0.23,0,0.41,0.09,0.56,0.27c0.14,0.18,0.21,0.38,0.21,0.61c0,0.26-0.09,0.48-0.27,0.64c-0.18,0.17-0.39,0.25-0.63,0.25
		c-0.16,0-0.3-0.04-0.42-0.13c-0.35-0.23-0.52-0.51-0.52-0.86c0-0.17,0.04-0.36,0.11-0.57c0.17-0.46,0.58-0.81,1.25-1.02
		c0.48-0.16,0.96-0.23,1.45-0.23c0.88,0,1.55,0.17,2,0.5c0.4,0.3,0.61,0.67,0.61,1.12v3.95c0,0.71,0.02,1.15,0.05,1.32
		c0.08,0.4,0.3,0.61,0.64,0.61c0.31,0,0.52-0.16,0.63-0.48c0.11-0.32,0.16-0.78,0.16-1.39c0-0.17,0-0.33-0.01-0.5
		c-0.01-0.17-0.01-0.34-0.01-0.52v-0.16h0.22v0.79c0,0.25,0.01,0.49,0.02,0.71c0,0.69-0.08,1.16-0.25,1.4
		c-0.22,0.3-0.65,0.45-1.31,0.45c-0.52,0-0.9-0.09-1.15-0.27c-0.3-0.21-0.5-0.57-0.59-1.08c-0.25,0.58-0.63,0.97-1.13,1.17
		c-0.3,0.12-0.7,0.18-1.2,0.18c-0.5,0-0.94-0.12-1.31-0.36c-0.51-0.32-0.77-0.81-0.77-1.47c0-0.65,0.25-1.19,0.75-1.63
		c0.5-0.43,1.1-0.67,1.82-0.73c0.71-0.06,1.19-0.16,1.44-0.29C351.54,322.34,351.67,322.05,351.67,321.59"/>
	<path class="st1" d="M357.68,328.5c-0.25,0.73-0.48,1.24-0.7,1.52c-0.25,0.33-0.57,0.5-0.97,0.5c-0.5,0-0.87-0.05-1.11-0.15
		c-0.24-0.1-0.39-0.28-0.46-0.52c-0.07-0.24-0.1-0.44-0.1-0.58c0-0.36,0.17-0.63,0.51-0.81c0.13-0.07,0.27-0.11,0.42-0.11
		c0.23,0,0.43,0.09,0.61,0.26c0.17,0.17,0.26,0.4,0.26,0.69c0,0.51-0.24,0.8-0.72,0.86c0.08,0.09,0.17,0.14,0.26,0.16
		c0.09,0.01,0.18,0.02,0.28,0.02c0.32,0,0.58-0.12,0.79-0.37c0.2-0.25,0.42-0.7,0.64-1.36l0.57-1.62l-2.59-7.01
		c-0.11-0.27-0.17-0.44-0.2-0.48c-0.07-0.12-0.28-0.18-0.63-0.18h-0.41v-0.18h4.1v0.18c-0.27,0-0.55,0-0.83,0.01
		c-0.28,0.01-0.42,0.08-0.42,0.22l0.11,0.36l1.73,4.61l1.2-3.52c0.14-0.42,0.22-0.74,0.22-0.97c0-0.48-0.4-0.72-1.2-0.72v-0.18h2.99
		v0.18c-0.45,0-0.8,0.11-1.05,0.33c-0.25,0.22-0.53,0.77-0.84,1.66L357.68,328.5z"/>
	<path class="st1" d="M365.37,328.5c-0.25,0.73-0.48,1.24-0.7,1.52c-0.25,0.33-0.57,0.5-0.97,0.5c-0.5,0-0.87-0.05-1.11-0.15
		c-0.24-0.1-0.39-0.28-0.46-0.52c-0.06-0.24-0.1-0.44-0.1-0.58c0-0.36,0.17-0.63,0.51-0.81c0.13-0.07,0.27-0.11,0.42-0.11
		c0.23,0,0.43,0.09,0.61,0.26c0.17,0.17,0.26,0.4,0.26,0.69c0,0.51-0.24,0.8-0.72,0.86c0.08,0.09,0.17,0.14,0.26,0.16
		c0.09,0.01,0.18,0.02,0.28,0.02c0.32,0,0.58-0.12,0.79-0.37c0.2-0.25,0.42-0.7,0.64-1.36l0.57-1.62l-2.59-7.01
		c-0.11-0.27-0.17-0.44-0.2-0.48c-0.07-0.12-0.28-0.18-0.63-0.18h-0.41v-0.18h4.1v0.18c-0.27,0-0.55,0-0.83,0.01
		c-0.28,0.01-0.42,0.08-0.42,0.22l0.11,0.36l1.73,4.61l1.2-3.52c0.14-0.42,0.22-0.74,0.22-0.97c0-0.48-0.4-0.72-1.2-0.72v-0.18h2.99
		v0.18c-0.45,0-0.8,0.11-1.05,0.33c-0.25,0.22-0.53,0.77-0.84,1.66L365.37,328.5z"/>
	<path class="st1" d="M373.32,324.83v-2.39c-0.14,0.19-0.35,0.31-0.63,0.35c-0.28,0.04-0.55,0.08-0.81,0.12
		c-0.35,0.08-0.62,0.28-0.82,0.58c-0.24,0.36-0.36,0.86-0.36,1.51c0,0.7,0.07,1.17,0.2,1.41c0.14,0.25,0.36,0.37,0.65,0.37
		c0.45,0,0.86-0.19,1.23-0.57C373.14,325.83,373.32,325.37,373.32,324.83 M373.37,321.59v-1.04c0-0.48-0.08-0.8-0.23-0.97
		c-0.15-0.17-0.48-0.25-0.98-0.25c-0.41,0-0.77,0.08-1.08,0.24c-0.31,0.16-0.51,0.37-0.61,0.64c0.05-0.01,0.11-0.02,0.18-0.02
		c0.23,0,0.41,0.09,0.56,0.27c0.14,0.18,0.21,0.38,0.21,0.61c0,0.26-0.09,0.48-0.27,0.64c-0.18,0.17-0.39,0.25-0.63,0.25
		c-0.16,0-0.3-0.04-0.42-0.13c-0.35-0.23-0.52-0.51-0.52-0.86c0-0.17,0.04-0.36,0.11-0.57c0.17-0.46,0.58-0.81,1.25-1.02
		c0.48-0.16,0.96-0.23,1.45-0.23c0.88,0,1.55,0.17,2,0.5c0.41,0.3,0.61,0.67,0.61,1.12v3.95c0,0.71,0.02,1.15,0.05,1.32
		c0.08,0.4,0.3,0.61,0.64,0.61c0.31,0,0.52-0.16,0.63-0.48c0.11-0.32,0.16-0.78,0.16-1.39c0-0.17,0-0.33-0.01-0.5
		c-0.01-0.17-0.01-0.34-0.01-0.52v-0.16h0.21v0.79c0,0.25,0.01,0.49,0.02,0.71c0,0.69-0.08,1.16-0.25,1.4
		c-0.22,0.3-0.65,0.45-1.31,0.45c-0.51,0-0.9-0.09-1.15-0.27c-0.3-0.21-0.5-0.57-0.59-1.08c-0.25,0.58-0.63,0.97-1.13,1.17
		c-0.3,0.12-0.7,0.18-1.2,0.18c-0.5,0-0.94-0.12-1.31-0.36c-0.51-0.32-0.77-0.81-0.77-1.47c0-0.65,0.25-1.19,0.75-1.63
		c0.5-0.43,1.1-0.67,1.82-0.73c0.71-0.06,1.19-0.16,1.44-0.29C373.25,322.34,373.37,322.05,373.37,321.59"/>
	<path class="st1" d="M380.15,322.4v3.52c0,0.24,0.02,0.4,0.05,0.47c0.02,0.04,0.08,0.07,0.17,0.11c0.09,0.04,0.25,0.07,0.48,0.09
		c0.23,0.02,0.44,0.04,0.62,0.04v0.16h-4.58v-0.16c0.26,0,0.52-0.01,0.78-0.04c0.26-0.02,0.49-0.07,0.69-0.14
		c0.07-0.06,0.11-0.23,0.11-0.52v-5.45c0-0.11,0-0.22-0.01-0.32c-0.01-0.11-0.03-0.19-0.08-0.25l-0.11-0.18
		c-0.12-0.08-0.57-0.12-1.36-0.12v-0.16l3.24-0.29v2.28c0.07-0.51,0.23-0.96,0.46-1.36c0.33-0.55,0.69-0.84,1.06-0.88
		c0.37-0.04,0.61-0.06,0.71-0.06c0.75,0,1.35,0.23,1.79,0.68c0.37,0.38,0.55,0.84,0.55,1.36v4.75c0,0.24,0.02,0.39,0.05,0.47
		c0.02,0.04,0.08,0.07,0.18,0.11c0.1,0.04,0.27,0.07,0.52,0.09c0.25,0.02,0.49,0.04,0.71,0.04v0.16h-4.58v-0.16
		c0.19,0,0.41-0.01,0.66-0.04c0.25-0.02,0.47-0.07,0.66-0.14c0.07-0.06,0.11-0.23,0.11-0.52v-4.55c0-0.58-0.05-1.01-0.14-1.31
		c-0.16-0.49-0.44-0.74-0.86-0.74c-0.55,0-1,0.34-1.34,1.02C380.45,320.87,380.26,321.55,380.15,322.4"/>
</g>
<g>
	<polygon class="st1" points="75.67,323.46 75.61,324.07 75.97,324.07 76.01,323.72 75.75,323.46 	"/>
	<polygon class="st1" points="75.56,325.08 75.82,325.33 75.85,325.08 	"/>
	<polygon class="st1" points="75.59,324.27 75.52,324.88 75.87,324.88 75.95,324.27 	"/>
	<polygon class="st1" points="76.02,323.46 76.04,323.47 76.04,323.46 	"/>
	<polygon class="st1" points="75.76,322.65 75.7,323.14 75.83,323.26 76.06,323.26 76.14,322.65 	"/>
	<polygon class="st1" points="64.92,323.46 64.99,324.07 65.97,324.07 65.35,323.46 	"/>
	<polygon class="st1" points="65.01,324.27 65.07,324.88 66.78,324.88 66.16,324.27 	"/>
	<polygon class="st1" points="70.59,324.27 71.21,324.88 73.02,324.88 72.4,324.27 	"/>
	<g>
		<path class="st1" d="M75.03,329.47c0.11-0.04,0.21-0.08,0.31-0.12l0.45-3.77l-0.31-0.31L75.03,329.47z"/>
	</g>
	<polygon class="st1" points="69.78,323.46 70.4,324.07 72.2,324.07 71.59,323.46 	"/>
	<polygon class="st1" points="68.52,324.27 69.13,324.88 70.94,324.88 70.32,324.27 	"/>
	<polygon class="st1" points="73.94,323.46 74.56,324.07 75.11,324.07 75.17,323.46 	"/>
	<polygon class="st1" points="67.78,323.46 67.79,323.54 68.32,324.07 70.13,324.07 69.51,323.46 	"/>
	<polygon class="st1" points="71.86,323.46 72.48,324.07 74.29,324.07 73.67,323.46 	"/>
	<g>
		<path class="st1" d="M95.13,322.41l0.08-0.12l0.13-0.2l0.04-0.28L94,321.74l-0.21,0.4c0,0,0.83-0.28,1-0.04L95.13,322.41z"/>
		<path class="st1" d="M93.54,325.7c0.19,0.02,0.35,0.08,0.48,0.17c0.07-0.17,0.15-0.34,0.22-0.51c-0.59-0.4-1.83-0.58-1.83-0.58
			L93.54,325.7z"/>
	</g>
	<polygon class="st1" points="64.9,323.26 65.16,323.26 64.87,322.98 	"/>
	<g>
		<path class="st1" d="M93.96,323.4c0,0-0.1,0.02-0.17,0.04c0.13-0.03,1,0.06,1.33,0.1c0.18-0.35,0.35-0.65,0.48-0.89l-0.14,0.07
			l-0.34,0.08l-1.38,0.16L93.96,323.4z"/>
		<path class="st1" d="M93.72,326.56l-0.06-0.11l-0.21,0.04l-1.46-1.23v0.32c0.46,0.59,0.59,1.58,0.59,1.58l-0.29-0.55l-0.04,0.36
			l-0.75-0.83c0.25,0.71-0.63,0.87-0.63,0.87c-2.39,4.65-1.46,9.26-1,10.88h2.04C91.12,334.16,92.4,329.78,93.72,326.56"/>
		<path class="st1" d="M82.18,317.79l-2.03,10.3c0.63,1.69,3.36,3.16,3.36,3.16c-0.11,0.43-0.22,0.83-0.35,1.22
			c-0.43,0.09-0.85,0.1-1.25,0.04c-0.94-0.14-1.82-0.66-2.62-1.53l2.78-13.49C82.27,317.72,82.18,317.79,82.18,317.79 M82.39,334.47
			c-0.1,0.01-0.19,0.02-0.29,0.02l-0.15,0c-1.06,0-2.13-0.3-3.2-0.89l0.37-1.8c0.66,0.57,1.38,0.92,2.13,1.03
			c0.17,0.03,0.35,0.04,0.53,0.04c0.43,0,0.87-0.08,1.32-0.22C82.88,333.32,82.64,333.93,82.39,334.47 M81.16,336.53
			c-0.6,0.06-1.2,0.03-1.79-0.11c-0.37-0.09-0.74-0.21-1.12-0.37l0.38-1.84c0.87,0.41,1.76,0.63,2.65,0.63l0.16,0
			c0.27-0.01,0.54-0.04,0.81-0.09C81.88,335.49,81.51,336.07,81.16,336.53 M64.81,322.45h1.61l-0.83-0.83
			c-0.02-0.02-0.01-0.07,0.03-0.11c0.04-0.04,0.09-0.05,0.11-0.03l0.96,0.96h0.47l-0.1-0.98h0.5l0.1,0.98h0.83l-0.83-0.83
			c-0.02-0.02-0.01-0.07,0.03-0.11c0.04-0.04,0.08-0.05,0.11-0.03l0.96,0.96h1.8l-0.83-0.83c-0.02-0.02-0.01-0.07,0.03-0.11
			c0.04-0.04,0.09-0.05,0.11-0.03l0.96,0.96h1.81l-0.83-0.83c-0.02-0.02-0.01-0.07,0.03-0.11c0.04-0.04,0.09-0.05,0.11-0.03
			l0.96,0.96h1.8l-0.83-0.83c-0.02-0.02-0.01-0.07,0.03-0.11c0.04-0.04,0.09-0.05,0.11-0.03l0.96,0.96h0.26l0.15-1.36h0.5
			l-0.15,1.36h0.38l0.05-0.38h0.24l-0.46-0.46c-0.02-0.02,0-0.06,0.04-0.1c0.04-0.04,0.08-0.05,0.1-0.04l0.97,0.97h1.54
			c0.47-0.92,0.94-1.97,1.15-2.96c0.43-2.02,1.56-2.21,1.56-2.21l-2.65,13.52c-2.04,0.91-4.2,1.5-6.43,1.74
			c-1.24,0.14-2.53,0.16-3.82,0.08c-0.02-0.01-0.06,0.02-0.06,0.06c0,0.03,0.02,0.06,0.05,0.07c0.96,0.13,1.93,0.19,2.89,0.19
			c0.79,0,1.59-0.04,2.38-0.13c1.64-0.18,3.25-0.55,4.81-1.09l-0.35,1.8c-1.25,0.37-2.53,0.64-3.84,0.78
			c-1.24,0.14-2.52,0.16-3.82,0.08c-0.02-0.01-0.06,0.02-0.06,0.06c0,0.03,0.02,0.07,0.05,0.07c0.96,0.13,1.93,0.19,2.89,0.19
			c0.79,0,1.59-0.05,2.38-0.13c0.76-0.08,1.52-0.21,2.26-0.37l-0.36,1.83c-0.46,0.1-0.92,0.18-1.39,0.24
			c-0.94,0.1-1.91,0.1-2.9-0.02c-0.03,0-0.06,0.02-0.06,0.05c-0.01,0.03,0.01,0.05,0.04,0.06c0.88,0.18,1.77,0.27,2.64,0.27
			c0.46,0,0.92-0.03,1.37-0.08c0.07-0.01,0.13-0.02,0.19-0.03l-0.27,1.38h0.56l0.28-1.36c0.15,0.05,0.31,0.09,0.46,0.12
			c0.42,0.1,0.85,0.14,1.27,0.14c0.39,0,0.78-0.05,1.17-0.13c-0.48,0.61-0.91,0.99-1.2,1.22h8.55c-1.82-5.96,1.87-11.24,1.87-11.24
			l-0.08-0.12c-0.67-0.2-0.04-0.56-0.04-0.56c-0.29-0.83,0.5-0.79,0.5-0.79c0.01,0,0.02,0.01,0.02,0.01
			c-0.04-0.08-0.06-0.13-0.06-0.13l-0.29-0.28l-0.5,0.4h-0.59l0.21-0.52l-0.92,0.71l-0.88-0.24l1.05-0.75H88.1l-0.71,0.44
			l-0.25-0.12l-0.42-0.32l0.25-0.04l0.59-0.36l3.01,0.12l0.21-0.36c-1.42,0.16-1.67-0.79-1.67-0.79l0.25-0.32l-0.83-0.08l-0.42,0.08
			l-0.25-0.16l0.17-0.12l-0.92-0.36l1.34,0.16l-1.59-0.83v-0.36l1.59,1.03l0.34,0.12l1.05-0.08l0.79,0.63h0.33
			c0.13-0.32-0.63-0.63-0.63-0.63v-0.75h0.54l-0.63-0.44l-0.12-0.55l0.75,0.32l-0.75-0.52l0.08-0.4l1.34,1.11l0.42,1.27l0.21,0.04
			c0.05-0.36,1.26-1.35,1.26-1.35l-0.13,0.51l0.38-0.08c0.46-0.2,1-0.36,1-0.36l0.42,0.08l0.59,0.51l0.21-0.04v-0.24l-0.17-0.52
			l-0.33-0.12l-2.05-0.04l-0.71-0.44l-1.13-0.28l1.21-0.28c0.46-0.16,1.96,0.67,1.96,0.67l0.54,0.24l0.21-0.12l-0.25-0.4l-0.42-0.32
			l-1.09-0.32l0.67-0.04l-0.13-0.28c-1,0.28-1.92-0.63-1.92-0.63l2.76,0.39l1.38,1.15l0.17-0.24c-0.21-0.36-0.34-1.03-0.34-1.03
			l0.34-0.08l-0.88-0.87l0.58-0.08l0.33-0.28l0.12,0.43l0.21,0.12l0.13,0.32l0.29,0.12l0.04,1.23l1-0.95c-0.12-0.36,0-0.75,0-0.75
			l1.09-0.83c0.13,0.48-0.67,2.42-0.67,2.42l0.25,0.04c0.04-0.28,0.46-0.59,0.46-0.59l0.59-0.04l0.88-0.32l-0.17,0.24l-0.5,0.32
			h0.17l-0.12,0.36L99.6,320l0.21,0.08l1.34,0.08c2.13-0.08,2.51,1.42,2.51,1.42h-0.33l-0.13-0.32l-0.21-0.24h-0.25l-0.25-0.24
			l-0.17,0.12l-0.21-0.12l-0.17,0.36l-2.72-0.2l0.04,0.12l0.46,0.2c1.96,0.36,2.43,3.29,2.43,3.29l-0.13-0.16l-2.59-2.02
			c-0.79-0.75-1.3-0.44-1.3-0.44l1.42,1.03c0.25,0.32,0.29,1.27,0.29,1.27l-0.25-0.35l-0.08,0.16l0.04,0.44l-0.46-0.16
			c0-0.28-0.17-0.52-0.17-0.52l-1.63-1.38l-0.32-0.3c-0.06,0.09-0.11,0.17-0.17,0.25l0.23,0.4l1.13,0.83h-0.25l-0.5-0.43l0.17,0.47
			l-0.25,0.04l-0.66-1.1c-0.23,0.36-0.45,0.72-0.65,1.08l0.86,0.1c0,0.28-0.62,0.46-1.24,0.58c-0.06,0.12-0.12,0.25-0.19,0.37
			l0.67,0.12l-1.06,0.69c-2.46,5.47-1.92,10.4-1.54,12.37h3.4v-3.9h1.58v3.9h0.79v-6.61h1.58v6.61h0.79v-11.51h1.59v11.51h0.79
			v-12.95h1.59v12.95h0.79v-11.17h1.59v11.17h5.65c0.09-5.82-1.68-11.72-5.48-16.72c-9-11.86-25.92-14.18-37.78-5.17
			c-2.24,1.7-4.13,3.67-5.67,5.84L64.81,322.45z"/>
		<path class="st1" d="M94.65,324.48c-0.17,0.02-0.28,0.03-0.28,0.03l0.24,0.05C94.63,324.53,94.64,324.51,94.65,324.48"/>
	</g>
	<polygon class="st1" points="67.25,325.08 67.48,325.31 67.45,325.08 	"/>
	<g>
		<path class="st1" d="M68.06,330.75l-0.55-5.13l-0.54-0.55h-1.87l0.59,5.52h-0.45C66.23,330.71,67.17,330.76,68.06,330.75"/>
	</g>
	<polygon class="st1" points="66.44,324.27 67.05,324.88 67.44,324.88 67.37,324.27 	"/>
	<polygon class="st1" points="65.62,323.46 66.24,324.07 67.35,324.07 67.28,323.46 	"/>
	<polygon class="st1" points="66.9,322.65 67.24,322.99 67.2,322.65 	"/>
	<polygon class="st1" points="64.83,322.65 64.84,322.67 65.43,323.26 67.24,323.26 66.62,322.65 	"/>
	<path class="st1" d="M77.45,324.62c0.05-0.1,0.12-0.22,0.19-0.36h-0.81l0.53,0.53C77.39,324.74,77.41,324.68,77.45,324.62"/>
	<path class="st1" d="M64.07,330.42c0.38,0.07,0.75,0.12,1.12,0.16l-0.58-5.51h-1.64c-0.03,0-0.06-0.04-0.06-0.1
		c0-0.05,0.03-0.1,0.06-0.1h1.61l-0.07-0.62h-1.3c-2.34,4.18-3.51,8.89-3.45,13.62l7.07,0C63.73,334.67,64.07,330.42,64.07,330.42"
		/>
	<path class="st1" d="M64.4,323.26l-0.07-0.62H64.2c-0.14,0.21-0.27,0.41-0.4,0.62H64.4z"/>
	<path class="st1" d="M87.81,342.4H60.22c0.08,0.45,0.18,0.9,0.28,1.34h24.75C86.09,343.22,86.94,342.77,87.81,342.4"/>
	<path class="st1" d="M76.29,325.51l0.65,0.18c0,0,0.06-0.17,0.28-0.62h-0.88L76.29,325.51z"/>
	<path class="st1" d="M82.97,345.33H60.93c0.13,0.45,0.28,0.9,0.45,1.34h19.68C81.69,346.23,82.33,345.79,82.97,345.33"/>
	<path class="st1" d="M64.42,323.46h-0.73c-0.12,0.21-0.24,0.41-0.36,0.62h1.16L64.42,323.46z"/>
	<polygon class="st1" points="76.44,324.27 76.37,324.88 77.18,324.88 76.56,324.27 	"/>
	<path class="st1" d="M78.71,348.26l-16.69,0c0.2,0.45,0.41,0.9,0.63,1.35h13.93C77.27,349.18,77.99,348.73,78.71,348.26"/>
	<path class="st1" d="M112.07,346.66c0.16-0.44,0.31-0.89,0.44-1.33h-2.3C110.91,345.83,111.52,346.27,112.07,346.66"/>
	<path class="st1" d="M59.84,339.47c0.03,0.45,0.08,0.89,0.13,1.34h53.5c0.06-0.45,0.1-0.89,0.13-1.34H59.84z"/>
	<path class="st1" d="M108.21,344.04v-0.3h4.74c0.11-0.45,0.2-0.89,0.29-1.34h-8.66C105.94,342.89,107.16,343.46,108.21,344.04"/>
	<path class="st1" d="M63.52,351.19c0.04,0.06,0.07,0.12,0.11,0.19c2.49,2.37,5.98,1.82,10.07-0.19L63.52,351.19z"/>
	<path class="st2" d="M89.64,347.3c-6.32,5.83-9.42,12.39-16.12,13.66c-0.01,0-0.02,0-0.03,0c9.08,5.11,20.71,4.68,29.54-2.02
		c4.13-3.14,7.1-7.23,8.84-11.74C100.71,341.54,94.61,342.72,89.64,347.3"/>
	<polygon class="st1" points="73.13,322.65 73.75,323.26 75.19,323.26 75.23,322.94 74.94,322.65 	"/>
	<polygon class="st1" points="74.75,324.27 75.06,324.57 75.09,324.27 	"/>
	<polygon class="st1" points="72.67,324.27 73.29,324.88 75.02,324.88 75.03,324.82 74.48,324.27 	"/>
	<polygon class="st1" points="75.21,322.65 75.26,322.69 75.26,322.65 	"/>
	<polygon class="st1" points="67.87,324.27 67.93,324.88 68.86,324.88 68.24,324.27 	"/>
	<g>
		<path class="st1" d="M74.51,329.66l0.49-4.58h-1.52l0.6,0.6c0.02,0.02,0.01,0.07-0.03,0.11c-0.04,0.04-0.09,0.05-0.11,0.03
			l-0.74-0.73h-1.8l0.6,0.6c0.02,0.02,0.01,0.07-0.03,0.11c-0.04,0.04-0.09,0.05-0.11,0.03l-0.74-0.73h-1.8l0.6,0.6
			c0.02,0.02,0.01,0.07-0.03,0.11c-0.04,0.04-0.09,0.05-0.11,0.03l-0.73-0.73h-1.1l0.6,5.67C70.96,330.68,72.96,330.2,74.51,329.66"
			/>
	</g>
	<polygon class="st1" points="67.85,324.07 68.05,324.07 67.82,323.85 	"/>
	<g>
		<path class="st1" d="M76.48,323.92l0.15,0.16h1.11c0.08-0.14,0.16-0.28,0.25-0.44l-0.17-0.17h-1.29L76.48,323.92z"/>
	</g>
	<polygon class="st1" points="76.64,322.65 76.56,323.26 77.63,323.26 77.02,322.65 	"/>
	<polygon class="st1" points="76.66,322.45 76.82,322.45 76.68,322.31 	"/>
	<g>
		<path class="st1" d="M78.21,323.26c0.11-0.19,0.22-0.4,0.33-0.62l-1.24,0l0.62,0.62H78.21z"/>
	</g>
	<polygon class="st1" points="67.7,322.65 67.76,323.26 69.31,323.26 68.7,322.65 	"/>
	<polygon class="st1" points="68.97,322.65 69.59,323.26 71.4,323.26 70.78,322.65 	"/>
	<polygon class="st1" points="71.05,322.65 71.67,323.26 73.47,323.26 72.86,322.65 	"/>
</g>
</svg>
